<?xml version="1.0" encoding="utf-8"?>
<!-- Generator: Adobe Illustrator 24.0.1, SVG Export Plug-In . SVG Version: 6.00 Build 0)  -->
<svg version="1.1" xmlns="http://www.w3.org/2000/svg" xmlns:xlink="http://www.w3.org/1999/xlink" x="0px" y="0px"
	 viewBox="0 0 2800 2800" style="enable-background:new 0 0 2800 2800;" xml:space="preserve">
<style type="text/css">
	.st0{display:none;}
	.st1{fill:url(#SVGID_1_);}
	.st2{fill:#BDD0FB;}
	.st3{fill:#FFFFFF;}
	.st4{fill:#91B3FA;}
	.st5{fill:url(#SVGID_2_);}
	.st6{fill:url(#SVGID_3_);}
	.st7{opacity:0.78;fill:#FFFFFF;}
	.st8{fill:url(#SVGID_4_);}
	.st9{fill:url(#SVGID_5_);}
	.st10{opacity:0.72;fill:#FFFFFF;}
	.st11{fill:url(#SVGID_6_);}
	.st12{fill:url(#SVGID_7_);}
	.st13{display:inline;}
	.st14{fill:url(#SVGID_8_);}
	.st15{fill:url(#SVGID_9_);}
	.st16{fill:url(#SVGID_10_);}
	.st17{fill:url(#SVGID_11_);}
	.st18{fill:url(#SVGID_12_);}
	.st19{fill:url(#SVGID_13_);}
	.st20{fill:url(#SVGID_14_);}
	.st21{fill:url(#SVGID_15_);}
	.st22{fill:url(#SVGID_16_);}
	.st23{fill:url(#SVGID_17_);}
	.st24{fill:url(#SVGID_18_);}
	.st25{fill:url(#SVGID_19_);}
	.st26{fill:url(#SVGID_20_);}
	.st27{fill:url(#SVGID_21_);}
	.st28{fill:url(#SVGID_22_);}
	.st29{fill:url(#SVGID_23_);}
	.st30{fill:url(#SVGID_24_);}
	.st31{fill:url(#SVGID_25_);}
	.st32{fill:url(#SVGID_26_);}
	.st33{fill:url(#SVGID_27_);}
	.st34{fill:url(#SVGID_28_);}
	.st35{fill:url(#SVGID_29_);}
	.st36{fill:url(#SVGID_30_);}
	.st37{fill:url(#SVGID_31_);}
	.st38{fill:url(#SVGID_32_);}
	.st39{fill:url(#SVGID_33_);}
	.st40{fill:url(#SVGID_34_);}
	.st41{fill:url(#SVGID_35_);}
	.st42{fill:url(#SVGID_36_);}
	.st43{fill:url(#SVGID_37_);}
	.st44{fill:url(#SVGID_38_);}
	.st45{fill:url(#SVGID_39_);}
	.st46{fill:url(#SVGID_40_);}
	.st47{fill:url(#SVGID_41_);}
	.st48{fill:url(#SVGID_42_);}
	.st49{opacity:0.6;fill:#FFFFFF;}
	.st50{fill:url(#SVGID_43_);}
	.st51{fill:url(#SVGID_44_);}
	.st52{fill:#7D97F4;}
</style>
<g id="Background" class="st0">
</g>
<g id="Illustration">
	<linearGradient id="SVGID_1_" gradientUnits="userSpaceOnUse" x1="2995.0435" y1="2812.8169" x2="987.7766" y2="1056.4596">
		<stop  offset="0" style="stop-color:#DAE3FE"/>
		<stop  offset="1" style="stop-color:#E9EFFD"/>
	</linearGradient>
	<path class="st1" d="M2653.91,1900.66c-259.42,610.83-950.45,953.02-1549.72,860.71c-97.51-15.02-364.85-59.76-601.53-270.84
		C47.02,2084.2-50.42,1279.6,317.13,712.58C584.64,299.89,1064.18,65.95,1519.84,77.65c98.15,2.52,474.3,18.06,804.87,290.63
		c48.55,40.04,155.64,135.17,252.16,286.11C2803.5,1008.8,2822.98,1502.58,2653.91,1900.66z"/>
	<g>
		<path class="st2" d="M419.78,25.24c-4.41-13.96,11.91-25.28,23.58-16.44c118.51,89.75,409.6,365.27,401.33,901.69
			c-10.37,673.01,153.78,900.75,341.77,1030.33c0,0-243.98-44.41-418.97-274.6C337.87,1101.03,498.19,273.43,419.78,25.24z"/>
		<path class="st3" d="M523.83,224.05c21.34,72.53,41.23,145.45,58.44,218.99c17.58,73.44,32.94,147.37,45.96,221.68
			c12.74,74.35,24.08,148.93,32.24,223.88c8.49,74.91,13.76,150.1,18.78,225.61c5.44,75.44,10.49,151.47,23.35,227.21
			c12.76,75.6,34.74,150.88,69.83,219.92c8.77,17.2,17.88,34.32,27.91,50.72c9.73,16.6,20.2,32.77,30.95,48.74
			c21.67,31.85,45.49,62.32,71.47,90.88c52.1,57,112.85,106.02,178.27,146.02c6.89,4.21,15.88,2.04,20.09-4.85
			c4.13-6.76,2.12-15.56-4.48-19.86l-0.05-0.03c-15.64-10.18-31.14-20.52-46.13-31.53c-7.58-5.38-14.91-11.09-22.35-16.66
			c-7.21-5.84-14.66-11.4-21.68-17.46c-28.5-23.75-55.3-49.47-80.07-77.05c-49.75-54.85-91.55-117.42-125.19-183.31
			c-16.45-33.15-30.43-67.45-41.72-102.71c-11.27-35.27-19.84-71.46-26.36-108.17c-13.04-73.46-18.67-148.67-24.65-224.06
			c-6.08-75.4-12.71-151.14-22.45-226.48c-4.77-37.68-10.21-75.27-16.32-112.74c-2.95-18.75-6.26-37.45-9.54-56.14
			c-3.46-18.66-7.02-37.31-10.73-55.92c-14.98-74.41-32.22-148.34-51.77-221.61c-19.9-73.18-41.74-145.81-66.35-217.47
			c-0.7-2.05-2.93-3.14-4.98-2.44C524.33,219.92,523.25,222.05,523.83,224.05z"/>
	</g>
	<g>
		<g>
			<path class="st4" d="M773.31,2017.55c-5.13,27.94-37.14,41.56-61.03,26.2c-131.86-84.77-483.02-358.18-543-896.01
				C118.63,693.55,48.01,452.09,8.35,344.7c-8.39-22.71,17.09-42.92,37.33-29.63C268.91,461.69,959.34,1005.01,773.31,2017.55z"/>
			<path class="st3" d="M735.41,2024.12c-0.51,0.48-1.08,0.92-1.7,1.3c-5.19,3.25-12.04,1.67-15.29-3.52
				c-3.68-5.89-369.29-596.03-468.24-1224.36c-0.95-6.05,3.18-11.73,9.23-12.68c6.05-0.95,11.73,3.18,12.68,9.23
				c98.23,623.75,461.48,1210.2,465.14,1216.05C740.09,2014.71,739.21,2020.56,735.41,2024.12z"/>
		</g>
	</g>
</g>
<g id="watch">
	<g>
		
			<linearGradient id="SVGID_2_" gradientUnits="userSpaceOnUse" x1="550.2552" y1="490.2403" x2="-2396.8984" y2="3849.5237" gradientTransform="matrix(-1 0 0 1 1152.8765 0)">
			<stop  offset="0" style="stop-color:#09005D"/>
			<stop  offset="1" style="stop-color:#1A0F91"/>
		</linearGradient>
		<path class="st5" d="M231.81,1390.12c0,609.95,513.16,1104.42,1146.18,1104.42s1174.53-516.07,1174.53-1126.02
			c0-609.95-541.51-1082.81-1174.53-1082.81S231.81,780.17,231.81,1390.12z"/>
		<g>
			<path class="st4" d="M2462.53,1121.58c0.68,0,1.36-0.07,2.04-0.25c4.23-1.09,6.74-5.26,5.62-9.34
				c-12.34-44.63-28.09-88.9-46.83-131.57c-1.71-3.87-6.38-5.64-10.37-4.05c-4.03,1.65-5.9,6.12-4.2,10.01
				c18.46,42,33.97,85.59,46.1,129.54C2455.83,1119.33,2459.04,1121.58,2462.53,1121.58z"/>
			<path class="st4" d="M2287.38,776.44c1.65,0,3.33-0.51,4.76-1.53c3.49-2.53,4.18-7.33,1.55-10.68
				c-212.36-271.35-554.42-433.33-915.02-433.33c-154,0-302.96,30.09-442.72,89.4c-4,1.7-5.81,6.21-4.05,10.06
				c1.75,3.86,6.43,5.6,10.44,3.92c137.73-58.48,284.54-88.12,436.33-88.12c355.66,0,692.99,159.72,902.38,427.25
				C2282.61,775.4,2284.98,776.44,2287.38,776.44z"/>
		</g>
		<linearGradient id="SVGID_3_" gradientUnits="userSpaceOnUse" x1="2001.4552" y1="1390.1169" x2="4010.2854" y2="1390.1169">
			<stop  offset="0" style="stop-color:#4F52FF"/>
			<stop  offset="1" style="stop-color:#4042E2"/>
		</linearGradient>
		<path class="st6" d="M387.75,1390.12c0,527.98,444.2,955.99,992.15,955.99s1016.68-446.71,1016.68-974.69
			c0-527.98-468.74-937.29-1016.68-937.29S387.75,862.14,387.75,1390.12z"/>
		<path class="st7" d="M2143.03,1340.53c2.45,40.58,38.58,71.56,80.7,69.2c42.11-2.36,74.27-37.17,71.82-77.75
			c-2.45-40.58-38.58-71.56-80.7-69.2C2172.74,1265.14,2140.58,1299.95,2143.03,1340.53z"/>
		<path class="st2" d="M492.79,1433.09c2.45,40.58,38.58,71.56,80.69,69.2c42.12-2.36,74.27-37.17,71.82-77.75
			c-2.45-40.58-38.58-71.56-80.69-69.2C522.5,1357.69,490.34,1392.5,492.79,1433.09z"/>
		<path class="st2" d="M1528.95,2093.57c-41.5,7.3-69,45.64-61.42,85.63c7.58,39.99,47.37,66.48,88.87,59.18
			c41.5-7.3,69-45.64,61.42-85.63C1610.24,2112.76,1570.45,2086.27,1528.95,2093.57z"/>
		<path class="st2" d="M1231.94,526.69c-41.5,7.3-69,45.64-61.42,85.63c7.58,39.99,47.36,66.48,88.87,59.18
			c41.5-7.3,69-45.64,61.42-85.63C1313.22,545.88,1273.44,519.39,1231.94,526.69z"/>
		<path class="st2" d="M985.9,2135.64c-7.76,18.87-5.83,36.54,4.33,39.47c10.15,2.92,24.68-10,32.44-28.87
			c7.76-18.87,5.82-36.54-4.33-39.47C1008.19,2103.84,993.66,2116.77,985.9,2135.64z"/>
		<path class="st7" d="M1649.8,649.45c-7.76,18.87-5.82,36.54,4.33,39.47c10.16,2.93,24.68-10,32.45-28.87
			c7.76-18.87,5.82-36.54-4.33-39.47C1672.08,617.66,1657.56,630.58,1649.8,649.45z"/>
		<path class="st7" d="M639.26,1853.12c-16.8,12.24-24.67,28.32-17.56,35.9c7.1,7.58,26.48,3.8,43.29-8.44
			c16.8-12.25,24.66-28.32,17.56-35.9C675.44,1837.09,656.06,1840.87,639.26,1853.12z"/>
		<path class="st7" d="M2007.49,915.11c-16.8,12.24-24.67,28.32-17.56,35.9c7.1,7.58,26.48,3.8,43.28-8.44
			c16.8-12.24,24.67-28.32,17.56-35.9C2043.67,899.09,2024.29,902.87,2007.49,915.11z"/>
		<path class="st7" d="M595.72,1011.62c-19.02-8.73-37.45-8.04-41.16,1.52c-3.71,9.57,8.7,24.4,27.72,33.12
			c19.02,8.73,37.45,8.05,41.16-1.52C627.16,1035.18,614.74,1020.35,595.72,1011.62z"/>
		<path class="st7" d="M2090.19,1749.42c-19.02-8.73-37.45-8.05-41.16,1.52c-3.71,9.57,8.7,24.4,27.72,33.12
			c19.02,8.73,37.45,8.04,41.16-1.52C2121.62,1772.98,2109.2,1758.15,2090.19,1749.42z"/>
		<path class="st2" d="M911.49,697.28c-11.55-16.98-27.67-25.61-36-19.29c-8.33,6.32-5.71,25.21,5.84,42.18
			c11.55,16.97,27.67,25.61,35.99,19.29C925.66,733.14,923.04,714.25,911.49,697.28z"/>
		<path class="st2" d="M1791.14,2075.52c-11.55-16.97-27.67-25.61-36-19.29c-8.33,6.32-5.71,25.2,5.84,42.18
			c11.55,16.97,27.67,25.61,36,19.29C1805.31,2111.37,1802.69,2092.49,1791.14,2075.52z"/>
		<linearGradient id="SVGID_4_" gradientUnits="userSpaceOnUse" x1="2693.4868" y1="-847.0659" x2="2247.8623" y2="185.9748">
			<stop  offset="0" style="stop-color:#4F52FF"/>
			<stop  offset="1" style="stop-color:#4042E2"/>
		</linearGradient>
		<path class="st8" d="M1341.81,1371.73l843.52,624.05c595.37-819.55-17.57-1509.33-792.38-1584.75L1341.81,1371.73z"/>
		<g>
			
				<linearGradient id="SVGID_5_" gradientUnits="userSpaceOnUse" x1="-1275.7156" y1="10403.0566" x2="-546.6077" y2="9081.5498" gradientTransform="matrix(0.1179 -0.993 -0.993 -0.1179 3964.6592 5118.5195)">
				<stop  offset="0" style="stop-color:#FF928E"/>
				<stop  offset="1" style="stop-color:#FE7062"/>
			</linearGradient>
			<path class="st9" d="M1393.85,1368.71l563.14,382.56c10.91,7.41,25.94,0.99,27.44-11.72l8.9-75.63
				c1.73-14.71,20.84-20.14,30.8-8.75l382.99,437.98c11.72,13.4-2.49,32.89-19.44,26.67l-547.69-200.94
				c-13.1-4.81-15.58-21.69-4.33-29.57l75.58-52.95c9.34-6.54,9.55-19.95,0.43-26.96l-538.65-413.65c-7.5-5.76-8.93-16.2-3.22-23.51
				l0,0C1375.46,1364.99,1386.08,1363.43,1393.85,1368.71z"/>
			<path class="st10" d="M2339.15,2081.18c5.64,0.85,11.2-1.42,14.54-6.15c4-5.65,3.46-12.89-1.32-18.03l-84.55-90.87
				c-2.93-3.15-7.94-3.44-11.17-0.63c-3.24,2.8-3.48,7.61-0.54,10.78l84.55,90.87c-123.72-47.32-413.92-155.13-420.05-156.67
				c-4.13-1.1-8.53,1.36-9.59,5.45c-1.04,4.03,1.45,8.14,5.58,9.27c8.77,2.73,231.19,85.22,419.28,155.13
				C2336.97,2080.73,2338.06,2081.02,2339.15,2081.18z"/>
			
				<linearGradient id="SVGID_6_" gradientUnits="userSpaceOnUse" x1="-12.6374" y1="9643.5889" x2="716.5303" y2="8321.9736" gradientTransform="matrix(-0.0305 -0.9995 -0.9995 0.0305 3988.2061 4623.7798)">
				<stop  offset="0" style="stop-color:#FF928E"/>
				<stop  offset="1" style="stop-color:#FE7062"/>
			</linearGradient>
			<path class="st11" d="M1346.79,1331.45l1.22-578.1c-0.2-12.8-14.51-20.76-26.11-14.52l-69.03,37.07
				c-13.43,7.21-29.31-4.5-25.6-18.87l142.76-552.73c4.37-16.91,29.21-17.19,33.99-0.39l154.52,542.97
				c3.7,12.99-9.08,24.74-22.38,20.57l-89.35-27.99c-11.04-3.46-22.47,4.17-22.98,15.35l-41.94,577.14
				c-0.42,9.19-8.37,16.37-17.92,16.18l0,0C1354.53,1347.92,1346.93,1340.56,1346.79,1331.45z"/>
			<path class="st10" d="M1511.12,693.86c0.97,0,1.94-0.16,2.89-0.52c4.02-1.52,6.02-5.85,4.54-9.74
				c-2.88-8.37-64.88-229.4-117.19-416.42c-1.86-6.61-7.69-10.96-14.99-10.8c-7.13,0.18-12.92,4.81-14.43,11.53l-26.6,118.64
				c-0.92,4.11,1.79,8.18,6.07,9.06c4.23,0.91,8.47-1.71,9.41-5.84l26.61-118.64c33.28,123.78,114.04,412.22,116.35,417.9
				C1504.98,692.03,1507.96,693.86,1511.12,693.86z"/>
			
				<linearGradient id="SVGID_7_" gradientUnits="userSpaceOnUse" x1="6265.0762" y1="-10413.7607" x2="6994.2451" y2="-11735.3779" gradientTransform="matrix(-1 0 0 1 1152.8765 0)">
				<stop  offset="0" style="stop-color:#FF928E"/>
				<stop  offset="1" style="stop-color:#FE7062"/>
			</linearGradient>
			<ellipse class="st12" cx="1385.02" cy="1362.45" rx="81.58" ry="78.61"/>
		</g>
	</g>
</g>
<g id="man" class="st0">
	<g class="st13">
		
			<linearGradient id="SVGID_8_" gradientUnits="userSpaceOnUse" x1="2427.9373" y1="2430.0132" x2="2358.1169" y2="2536.2356" gradientTransform="matrix(1 0 0 1 66.0039 0)">
			<stop  offset="0" style="stop-color:#FDF53F"/>
			<stop  offset="0.6645" style="stop-color:#E57A58"/>
			<stop  offset="1" style="stop-color:#D93C65"/>
		</linearGradient>
		<path class="st14" d="M2408.96,2478.18c15.25,3.03,102.15,54.74,102.15-4.38c0-5.57,0-66.04,0-66.04
			S2404.58,2477.31,2408.96,2478.18z"/>
		
			<linearGradient id="SVGID_9_" gradientUnits="userSpaceOnUse" x1="2029.7983" y1="2733.353" x2="1947.9331" y2="2836.283" gradientTransform="matrix(1 0 0 1 66.0039 0)">
			<stop  offset="0" style="stop-color:#09005D"/>
			<stop  offset="1" style="stop-color:#1A0F91"/>
		</linearGradient>
		<path class="st15" d="M2104.02,2761.93c0,0-20.19-16.76-47.04-14.32c-18.72,3.28-40.68,19.83-54.83,32.12
			c-2.47,2.14-3.3,5.55-2.08,8.54c1.21,2.99,4.22,4.93,7.53,4.86c35.1-0.73,103.78-2.81,103.78-7.99
			C2111.36,2778.2,2104.02,2761.93,2104.02,2761.93z"/>
		
			<linearGradient id="SVGID_10_" gradientUnits="userSpaceOnUse" x1="2044.9774" y1="2714.0671" x2="1997.4343" y2="2773.8435" gradientTransform="matrix(1 0 0 1 66.0039 0)">
			<stop  offset="0" style="stop-color:#FEBBBA"/>
			<stop  offset="1" style="stop-color:#FF928E"/>
		</linearGradient>
		<path class="st16" d="M2117.93,2732.39l-16.11,30.43c0,0-36.4,2.98-35.21-11.34c1.19-14.32,10.14-31.63,10.14-31.63
			L2117.93,2732.39z"/>
		<linearGradient id="SVGID_11_" gradientUnits="userSpaceOnUse" x1="3580.377" y1="3501.1846" x2="2795.5095" y2="2974.5645">
			<stop  offset="0" style="stop-color:#4F52FF"/>
			<stop  offset="1" style="stop-color:#4042E2"/>
		</linearGradient>
		<path class="st17" d="M2529.35,2753.12c-25.24-137.82-21.17-221.84-21.17-221.84s-302.23-184.98-330.87-140.82
			c-28.64,44.16-110.73,345.52-110.73,345.52l54.73,14.92c0,0,104.63-141.72,114.18-262.72c26.94,88.25,52.04,299.13,259.29,305.18
			c10.29,0.3,20.16-4.07,26.87-11.87C2528.36,2773.67,2531.21,2763.24,2529.35,2753.12z"/>
		
			<linearGradient id="SVGID_12_" gradientUnits="userSpaceOnUse" x1="1815.3929" y1="2705.5598" x2="1845.2703" y2="2810.3796" gradientTransform="matrix(1 0 0 1 66.0039 0)">
			<stop  offset="0" style="stop-color:#FEBBBA"/>
			<stop  offset="1" style="stop-color:#FF928E"/>
		</linearGradient>
		<polygon class="st18" points="1924.58,2749.7 1891.16,2781.33 1864.91,2755.07 1899.52,2715.09 		"/>
		
			<linearGradient id="SVGID_13_" gradientUnits="userSpaceOnUse" x1="1951.7716" y1="2205.9712" x2="1966.1692" y2="2076.3928" gradientTransform="matrix(-1 0 0 1 4588.4336 0)">
			<stop  offset="0" style="stop-color:#FEBBBA"/>
			<stop  offset="1" style="stop-color:#FF928E"/>
		</linearGradient>
		<path class="st19" d="M2659.98,2063.26l27.9,102.83c1.28,4.71-0.3,9.81-3.97,12.59c-13.43,10.17-48.55,30.38-96.71,10.74
			c-5.51-2.25-9.28-7.93-9.76-14.4l-6.61-89.58L2659.98,2063.26z"/>
		<g>
			
				<linearGradient id="SVGID_14_" gradientUnits="userSpaceOnUse" x1="1935.5292" y1="2067.6531" x2="1878.2074" y2="1878.5923" gradientTransform="matrix(-0.9964 -0.085 -0.085 0.9964 4662.3574 192.7048)">
				<stop  offset="0" style="stop-color:#FEBBBA"/>
				<stop  offset="1" style="stop-color:#FF928E"/>
			</linearGradient>
			<path class="st20" d="M2496.66,1980.32c0,0,5.47,97.29,39.87,130c34.4,32.71,108.24,16.59,138.72-53.8l-37.85-128.03
				L2496.66,1980.32z"/>
			
				<linearGradient id="SVGID_15_" gradientUnits="userSpaceOnUse" x1="1892.7274" y1="1727.6831" x2="1946.12" y2="2032.2185" gradientTransform="matrix(-0.9964 -0.085 -0.085 0.9964 4662.3574 192.7048)">
				<stop  offset="0" style="stop-color:#09005D"/>
				<stop  offset="1" style="stop-color:#1A0F91"/>
			</linearGradient>
			<path class="st21" d="M2626.47,2015.69c-2.89,0.67-5.67-1.39-5.86-4.34c-0.58-8.99-2.41-26.83-8.12-39.37
				c0,0,4.6-12.31-32.42,3.72c-37.02,16.03-92.57,39.48-122.45,20.15c-29.13-18.85-53.07-103.26,26.29-81.23
				c3.02,0.84,6.05-1.37,6.09-4.5c0.16-13.52,4.13-44.33,36.28-51.58c30.09-6.79,45,7.81,50.93,16.35c1.74,2.51,5.36,2.78,7.42,0.51
				c9.75-10.71,35.67-33.07,69.44-14.61c27.82,15.2,30.79,33.39,29.37,44.44c-0.46,3.58,2.98,6.33,6.37,5.1
				c9.2-3.32,23.62-4.23,35.8,14.03c16.84,25.23-11.85,43.42-20.39,48.1c-1.4,0.77-2.35,2.16-2.49,3.74
				c-1.12,12.28-5.43,67-34.87,94.94c-2.55,2.42-8.96-0.01-10.04-3.35l-16.48-51.04c-0.77-2.37-3.22-3.76-5.64-3.2L2626.47,2015.69z
				"/>
			
				<linearGradient id="SVGID_16_" gradientUnits="userSpaceOnUse" x1="1888.1394" y1="2090.27" x2="1830.8176" y2="1901.2092" gradientTransform="matrix(-0.9964 -0.085 -0.085 0.9964 4662.3574 192.7048)">
				<stop  offset="0" style="stop-color:#FEBBBA"/>
				<stop  offset="1" style="stop-color:#FF928E"/>
			</linearGradient>
			<path class="st22" d="M2622.4,2022.67c0,0,17.02-50.36,34.78-32.02c17.76,18.34-9.56,53.03-32.14,58.16L2622.4,2022.67z"/>
		</g>
		
			<linearGradient id="SVGID_17_" gradientUnits="userSpaceOnUse" x1="1759.976" y1="2738.9392" x2="1787.8413" y2="2836.7002" gradientTransform="matrix(1 0 0 1 66.0039 0)">
			<stop  offset="0" style="stop-color:#09005D"/>
			<stop  offset="1" style="stop-color:#1A0F91"/>
		</linearGradient>
		<path class="st23" d="M1907.46,2765.91c-8.17,0.09-42.55-15.01-42.55-15.01l-32.03,8.55c-27.91-4.29-51.89,5.21-68.04,14.87
			c-3.53,2.11-5.22,6.31-4.16,10.28c1.06,3.97,4.63,6.76,8.74,6.83c31.61,0.52,83.52,1.05,109.81-0.52
			C1918.61,2788.55,1924.58,2789.68,1907.46,2765.91z"/>
		
			<linearGradient id="SVGID_18_" gradientUnits="userSpaceOnUse" x1="-3839.0422" y1="2302.5657" x2="-3641.1731" y2="2302.5657" gradientTransform="matrix(-1 0 0 1 -1655.1407 0)">
			<stop  offset="0" style="stop-color:#09005D"/>
			<stop  offset="1" style="stop-color:#1A0F91"/>
		</linearGradient>
		<path class="st24" d="M2183.9,2426.02l-69.23-230.87c-2.82-9.42-11.19-16.1-21-16.77l-93.47-6.4c-9.5-0.65-16.57,8.63-13.41,17.62
			l77.39,220.48c2.49,7.1,8.87,12.12,16.36,12.88l92.04,10.22L2183.9,2426.02z"/>
		
			<linearGradient id="SVGID_19_" gradientUnits="userSpaceOnUse" x1="-3815.0266" y1="2389.0596" x2="-3973.2439" y2="2432.4229" gradientTransform="matrix(-1 0 0 1 -1655.1407 0)">
			<stop  offset="0" style="stop-color:#09005D"/>
			<stop  offset="1" style="stop-color:#1A0F91"/>
		</linearGradient>
		<path class="st25" d="M2172.58,2433.18c0.15,0,0.3,0,0.45-0.01l196.12-9.91c4.85-0.24,8.58-4.37,8.33-9.22
			c-0.24-4.85-4.39-8.66-9.22-8.33l-196.12,9.91c-4.85,0.24-8.58,4.37-8.33,9.22C2164.05,2429.53,2167.93,2433.18,2172.58,2433.18z"
			/>
		
			<linearGradient id="SVGID_20_" gradientUnits="userSpaceOnUse" x1="-4129.6094" y1="1497.6172" x2="-3766.5876" y2="1000.984" gradientTransform="matrix(-0.9515 -0.3075 -0.3075 0.9515 -1100.0863 -215.9295)">
			<stop  offset="0" style="stop-color:#FEBBBA"/>
			<stop  offset="1" style="stop-color:#FF928E"/>
		</linearGradient>
		<path class="st26" d="M2464.24,2405.35c0,0-38.45,49.53-148.5-14.46c0,0-31.1-28.61-63.11-25.4
			c-32.02,3.21-55.25,46.77-55.25,46.77l61.79-1.27c0,0,85.78,104.08,265.12,104.08C2529.3,2475.17,2488.28,2441.32,2464.24,2405.35
			z"/>
		<linearGradient id="SVGID_21_" gradientUnits="userSpaceOnUse" x1="2518.5598" y1="1823.0797" x2="2690.7246" y2="2775.0491">
			<stop  offset="0" style="stop-color:#FF928E"/>
			<stop  offset="1" style="stop-color:#FE7062"/>
		</linearGradient>
		<path class="st27" d="M2616.54,2153.94c-23.41,5.15-49.39,29.9-67.76,50.75c-14.74,16.73-25.4,36.22-31.65,57.62
			c-14.07,48.23-44.87,142.59-65.25,151.61c46.15,65.55,53.93,87,53.93,87c-8.67,78.21-26.84,93.86-26.84,93.86
			s90.14,89.48,199.32,114.94c99.43-73.2,114.63-282.61,114.63-282.61C2800.7,2178.73,2685.99,2138.67,2616.54,2153.94z"/>
		<linearGradient id="SVGID_22_" gradientUnits="userSpaceOnUse" x1="2502.7268" y1="2410.9856" x2="2622.5693" y2="2410.9856">
			<stop  offset="0" style="stop-color:#E1473D"/>
			<stop  offset="1" style="stop-color:#E9605A"/>
		</linearGradient>
		<path class="st28" d="M2504.97,2503.54c-0.63,0-1.26-0.26-1.7-0.78c-0.81-0.94-0.71-2.35,0.23-3.17
			c0.9-0.78,90.52-79.02,114.64-179.45c0.29-1.2,1.51-1.94,2.71-1.66c1.21,0.29,1.95,1.5,1.66,2.71
			c-24.46,101.86-115.15,181.01-116.07,181.8C2506.01,2503.36,2505.49,2503.54,2504.97,2503.54z"/>
		<linearGradient id="SVGID_23_" gradientUnits="userSpaceOnUse" x1="2285.6833" y1="2657.7424" x2="2341.384" y2="2014.6576">
			<stop  offset="0" style="stop-color:#4F52FF"/>
			<stop  offset="1" style="stop-color:#4042E2"/>
		</linearGradient>
		<path class="st29" d="M2678.28,2709.72c0,0-44.76,133.08-265.66,58.48c-107.11-36.17-257.09-245.86-257.09-245.86
			s-37,101.45-230.35,237.51l-42.97-38.59c0,0,195.73-337.36,295.99-302.35C2278.46,2453.91,2708.91,2623.39,2678.28,2709.72z"/>
		<polygon class="st2" points="2009.61,2188.71 2084.97,2398.78 2165,2396.7 2101.2,2195.15 		"/>
	</g>
</g>
<g id="woman" class="st0">
	<g class="st13">
		<linearGradient id="SVGID_24_" gradientUnits="userSpaceOnUse" x1="163.6204" y1="1765.1758" x2="406.6758" y2="1415.7836">
			<stop  offset="0" style="stop-color:#E1473D"/>
			<stop  offset="1" style="stop-color:#E9605A"/>
		</linearGradient>
		<path class="st30" d="M402.39,1317.38c0,0-33.03,16.06-39.1,34.52c-4.87,14.81-41.39,16.72-45,45.84
			c-1.86,15.04-12.99,27.08-27.96,29.37c-37.3,5.72-94.78,25.08-103.97,89.84c-7.02,49.43,18.18,68.17,44.62,74.66
			c19.42,4.76,32.33,23.66,28.4,43.26c-3.77,18.81,1.85,40.55,34.43,57.74c73.02,38.53,145.93-91.28,145.93-91.28l14.94-226.65
			L402.39,1317.38z"/>
		
			<linearGradient id="SVGID_25_" gradientUnits="userSpaceOnUse" x1="-2878.5166" y1="1008.4031" x2="-2697.5369" y2="1420.1729" gradientTransform="matrix(-0.9776 -0.2106 -0.2106 0.9776 -1910.8418 -219.5607)">
			<stop  offset="0" style="stop-color:#FEBBBA"/>
			<stop  offset="1" style="stop-color:#FF928E"/>
		</linearGradient>
		<path class="st31" d="M799.69,1263.65c0,0-145.79,230.59-319.14,275.13c0,0,33.78,96.21,59.85,107.22
			c0,0,213.28-177.96,268.09-349.59L799.69,1263.65z"/>
		
			<linearGradient id="SVGID_26_" gradientUnits="userSpaceOnUse" x1="-2177.7971" y1="2758.4414" x2="-2094.7275" y2="2758.4414" gradientTransform="matrix(-1 0 0 1 -2075.4333 0)">
			<stop  offset="0" style="stop-color:#09005D"/>
			<stop  offset="1" style="stop-color:#1A0F91"/>
		</linearGradient>
		<path class="st32" d="M102.26,2738.52l-4.73,38.84c-0.9,7.37-6.7,13.2-14.07,14.04c-12.45,1.42-32.43,2.88-51.98,0.81
			c-8.58-0.91-14.15-9.6-11.54-17.82c4.77-14.99,13.49-37.5,26.06-50.75h43.09C97.05,2723.64,103.23,2730.61,102.26,2738.52z"/>
		
			<linearGradient id="SVGID_27_" gradientUnits="userSpaceOnUse" x1="-2528.8086" y1="3086.022" x2="-2409.2654" y2="1688.8616" gradientTransform="matrix(-1 0 0 1 -2075.4333 0)">
			<stop  offset="0" style="stop-color:#FEBBBA"/>
			<stop  offset="1" style="stop-color:#FF928E"/>
		</linearGradient>
		<path class="st33" d="M439.75,2283.5l7.27,42.78c0,0-24.35,246.69-28.69,345.37c-0.68,15.47,3.32,30.76,11.44,43.95l42.35,68.77
			l-107.63-63.51l-2.14-13.13l17.62-24.23l-23.08-276.36c-1.36-16.23,1.99-32.52,9.65-46.9l22.26-41.82L439.75,2283.5z"/>
		
			<linearGradient id="SVGID_28_" gradientUnits="userSpaceOnUse" x1="-2563.7307" y1="2743.2749" x2="-2429.3179" y2="2743.2749" gradientTransform="matrix(-1 0 0 1 -2075.4333 0)">
			<stop  offset="0" style="stop-color:#09005D"/>
			<stop  offset="1" style="stop-color:#1A0F91"/>
		</linearGradient>
		<path class="st34" d="M479.22,2794.33h-34.35c-6.43,0-12.49-2.95-16.41-8.05c-10.71-13.91-32.89-41.06-43.5-41.77
			c-14.28-0.95-12.45,49.81-12.45,49.81h-8l-10.14-63.08c-2.55-15.87,5.34-31.6,19.59-39.03c0,0,3.26,24.14,20.96,34.82
			c17.7,10.68,72.03,48.92,72.03,48.92s6.65-0.95,13.96,0.37C491.74,2778.28,490.23,2794.33,479.22,2794.33z"/>
		
			<linearGradient id="SVGID_29_" gradientUnits="userSpaceOnUse" x1="-2288.3403" y1="3106.811" x2="-2168.7659" y2="1709.2834" gradientTransform="matrix(-1 0 0 1 -2075.4333 0)">
			<stop  offset="0" style="stop-color:#FEBBBA"/>
			<stop  offset="1" style="stop-color:#FF928E"/>
		</linearGradient>
		<path class="st35" d="M292.33,2303.82c0,0-142.68,270.65-165.36,332.44c-22.68,61.79-30.63,113.34-30.93,118.22
			c-0.48,7.63-9.96,14.94-36.11,14.94c-13.5,0-20.11-5.41-23.34-10.65c-2.76-4.47-2.9-10.06-0.58-14.77
			c8.25-16.7,34.44-70.08,44.14-94.29c11.58-28.91,36.49-159.9,50.16-205.44c13.66-45.54,29.11-94.95,88.6-140.46
			C218.92,2303.82,259.76,2263.82,292.33,2303.82z"/>
		<linearGradient id="SVGID_30_" gradientUnits="userSpaceOnUse" x1="326.0333" y1="1708.2096" x2="583.1998" y2="1708.2096">
			<stop  offset="0" style="stop-color:#DAE3FE"/>
			<stop  offset="1" style="stop-color:#E9EFFD"/>
		</linearGradient>
		<path class="st36" d="M382.47,1860.35c36.8-155.95-56.43-244.16-56.43-244.16c58.83-56.47,166.02-82.17,166.02-82.17
			s102.28,74.78,90.15,133.31c-7.11,34.3-71.89,205.48-71.89,205.48S450.4,1901.16,382.47,1860.35z"/>
		<linearGradient id="SVGID_31_" gradientUnits="userSpaceOnUse" x1="214.3871" y1="2095.9124" x2="517.731" y2="2095.9124">
			<stop  offset="0" style="stop-color:#4F52FF"/>
			<stop  offset="1" style="stop-color:#4042E2"/>
		</linearGradient>
		<path class="st37" d="M300.86,1937.56c14.98-45.12,81.6-77.21,81.6-77.21c67.94,40.8,127.84,12.45,127.84,12.45
			s13.43,51.35,4.16,99.07c-9.27,47.72-67.45,354.41-67.45,354.41c-91.66,18.57-232.64-18.69-232.64-18.69
			C272.77,2203.94,285.89,1982.69,300.86,1937.56z"/>
		
			<linearGradient id="SVGID_32_" gradientUnits="userSpaceOnUse" x1="-2541.9185" y1="1708.8403" x2="-2519.4626" y2="1544.5594" gradientTransform="matrix(-1 0 0 1 -2075.4333 0)">
			<stop  offset="0" style="stop-color:#FEBBBA"/>
			<stop  offset="1" style="stop-color:#FF928E"/>
		</linearGradient>
		<path class="st38" d="M425.19,1430.97l-29.92,134.41c-2.86,11.84,7.93,9.9,19.9,7.64c19.6-3.7,44.87-11.31,53.31-26.56
			c0.86-1.55,1.29-3.31,1.53-5.07l12.86-93.2c1.02-7.39-2.98-14.57-9.8-17.6l-24.81-11C438.7,1415.36,427.64,1420.81,425.19,1430.97
			z"/>
		<g>
			
				<linearGradient id="SVGID_33_" gradientUnits="userSpaceOnUse" x1="-2718.2102" y1="1202.167" x2="-2522.2742" y2="853.4667" gradientTransform="matrix(-0.9809 -0.1943 -0.1943 0.9809 -1926.2415 -196.3555)">
				<stop  offset="0" style="stop-color:#FEBBBA"/>
				<stop  offset="1" style="stop-color:#FF928E"/>
			</linearGradient>
			<path class="st39" d="M482.5,1308.44c0,0,31.86,21.56,45.54,76.48s-8.56,74.61-31.36,73.41c-22.8-1.21-55.87-8.26-84.51-47.66
				C383.53,1371.27,440.76,1282.09,482.5,1308.44z"/>
			<linearGradient id="SVGID_34_" gradientUnits="userSpaceOnUse" x1="147.3784" y1="1753.8776" x2="390.4348" y2="1404.4843">
				<stop  offset="0" style="stop-color:#E1473D"/>
				<stop  offset="1" style="stop-color:#E9605A"/>
			</linearGradient>
			<path class="st40" d="M441.06,1388.52c0,0-11.67-78.69,53.66-66.65l13.21,13.75c0,0,31.98-36.01-3.41-63.24
				s-84.5-20.25-111.67,29.31c-27.17,49.56-37.03,84.38-14.26,115.18s39.9,4.38,39.9,4.38s-10.44-26.65-1.78-38.09
				c8.67-11.44,19.85,6.65,19.85,6.65L441.06,1388.52z"/>
			
				<linearGradient id="SVGID_35_" gradientUnits="userSpaceOnUse" x1="-2676.5037" y1="1225.6049" x2="-2480.5679" y2="876.9052" gradientTransform="matrix(-0.9809 -0.1943 -0.1943 0.9809 -1926.2415 -196.3555)">
				<stop  offset="0" style="stop-color:#FEBBBA"/>
				<stop  offset="1" style="stop-color:#FF928E"/>
			</linearGradient>
			<path class="st41" d="M432.13,1395.26c0,0-5.76-40.48-26.44-28.91c-20.68,11.57,7.45,37.82,18.73,46.75L432.13,1395.26z"/>
		</g>
		<g>
			
				<linearGradient id="SVGID_36_" gradientUnits="userSpaceOnUse" x1="-2914.2815" y1="1024.1228" x2="-2733.3018" y2="1435.8926" gradientTransform="matrix(-0.9776 -0.2106 -0.2106 0.9776 -1910.8418 -219.5607)">
				<stop  offset="0" style="stop-color:#FEBBBA"/>
				<stop  offset="1" style="stop-color:#FF928E"/>
			</linearGradient>
			<path class="st42" d="M798.69,1311.12c0.44,4.76-17.25,8.04-22.88-12.23c1.55-8.8,4.3-47.36,11.05-53.35
				c35.95-31.9,100.06-67.79,100.06-67.79c7.17,10.95-2.23,18.16-2.23,18.16l-32,21.6c3.34,11.06,8.21,20.83,8.76,33.46
				c0.42,9.56-3.11,18.92-9.46,26.17c-6.37,7.28-14.94,16.67-22.67,23.81C814.69,1314.44,798.69,1311.12,798.69,1311.12z"/>
			<linearGradient id="SVGID_37_" gradientUnits="userSpaceOnUse" x1="795.2442" y1="1262.4722" x2="843.977" y2="1262.4722">
				<stop  offset="0" style="stop-color:#FEBBBA"/>
				<stop  offset="1" style="stop-color:#FF928E"/>
			</linearGradient>
			<path class="st43" d="M816.07,1295.4l-4.89-2.01c0.65-1.58,16.01-38.9,23.43-46.66c2.82-2.95,4.19-5.47,4.06-7.5
				c-0.06-1.1-0.61-2.19-1.64-3.29l-25.89,13.85l-11.44,17.91l-4.46-2.85l12.18-19.07l30.33-16.22l1.37,1.11
				c3.07,2.51,4.65,5.2,4.84,8.24c0.22,3.62-1.58,7.37-5.51,11.49C832.85,1256.23,820.4,1284.86,816.07,1295.4z"/>
		</g>
		<g>
			
				<linearGradient id="SVGID_38_" gradientUnits="userSpaceOnUse" x1="-3775.4604" y1="1765.4032" x2="-3990.8247" y2="1824.4288" gradientTransform="matrix(-0.9988 -0.0494 -0.0494 0.9988 -3313.2441 -78.0569)">
				<stop  offset="0" style="stop-color:#09005D"/>
				<stop  offset="1" style="stop-color:#1A0F91"/>
			</linearGradient>
			<path class="st44" d="M415.81,1942.63c0.2,0.01,0.41,0.02,0.61,0.01l267.32-0.29c6.61-0.01,11.96-5.31,11.95-11.85
				c-0.01-6.54-5.39-11.94-11.98-11.83l-267.32,0.29c-6.61,0.01-11.96,5.31-11.95,11.85
				C404.46,1937.15,409.49,1942.32,415.81,1942.63z"/>
			
				<linearGradient id="SVGID_39_" gradientUnits="userSpaceOnUse" x1="-3995.2649" y1="1734.308" x2="-4147.1772" y2="1894.8699" gradientTransform="matrix(-1 0 0 1 -3332.7358 0)">
				<stop  offset="0" style="stop-color:#09005D"/>
				<stop  offset="1" style="stop-color:#1A0F91"/>
			</linearGradient>
			<path class="st45" d="M924.06,1702.48H701.43c-16.42,0-31.37,9.38-38.38,24.08l-102.92,215.93H836.8
				c10.58,0,20.09-6.4,23.98-16.14l79.81-199.81C945.21,1714.99,936.61,1702.48,924.06,1702.48z"/>
			
				<ellipse transform="matrix(0.313 -0.9497 0.9497 0.313 -1188.5968 1993.7697)" class="st4" cx="783.91" cy="1818.51" rx="28.24" ry="17.52"/>
		</g>
		<linearGradient id="SVGID_40_" gradientUnits="userSpaceOnUse" x1="53.9369" y1="1921.3214" x2="523.5788" y2="1724.8524">
			<stop  offset="0" style="stop-color:#FEBBBA"/>
			<stop  offset="1" style="stop-color:#FF928E"/>
		</linearGradient>
		<path class="st46" d="M325.65,1616.51c-36.47,36.81-82.75,199.95-59.79,227.2c20.22,31.72,89.05,74.9,154.6,74.96h96.71
			c-40.64-43.18-68.62-54.13-101.94-23.94c-26.44-11.3-60.73-55.07-83.61-74.61c-8.99-7.67-11.11-20.76-5.1-30.93
			c18.18-30.78,40.98-62.42,48.23-93.07C376.3,1660.21,349.72,1619.11,325.65,1616.51z"/>
	</g>
</g>
<g id="mail" class="st0">
	<g class="st13">
		<path class="st4" d="M1312.35,2508.13h-291.2c-22.27,0-40.33-13.94-40.33-31.13v-225.42c0-16.22,16.13-29.72,37.07-31.03
			l310.26-19.39c24.44-1.53,44.98,14,43.51,32.9l-19.06,244.8C1351.32,2495.3,1333.68,2508.13,1312.35,2508.13z"/>
		<path class="st10" d="M1062.61,2463.28c-8.09,0-15.66-2.83-20.95-7.89c-4.32-4.13-6.7-9.43-6.7-14.95v-144.52
			c0-3.54,2.87-6.4,6.4-6.4s6.4,2.87,6.4,6.4v144.52c0,2.54,1.49,4.49,2.74,5.69c3.08,2.94,7.99,4.54,13.11,4.32l221.84-10.2
			c7.67-0.35,13.91-4.84,13.91-10v-141.89c0-2.6-1.56-4.59-2.86-5.81c-3.25-3.01-8.33-4.56-13.62-4.16l-184.54,14.11
			c-7.51,0.58-11.6,4.46-12.82,7.61c-1.01,2.6-0.36,5.24,1.87,7.62l70.38,74.98c2.76,2.94,7.39,4.73,12.38,4.77
			c5.03-0.09,9.76-1.69,12.61-4.63l77.53-79.75c2.47-2.53,6.52-2.59,9.06-0.13c2.54,2.46,2.59,6.52,0.13,9.06l-77.53,79.75
			c-5.33,5.48-13.28,8.49-21.91,8.51c-8.54-0.07-16.42-3.29-21.6-8.81l-70.38-74.99c-5.6-5.97-7.27-13.82-4.47-21.02
			c3.44-8.85,12.55-14.88,23.79-15.74l184.54-14.11c8.77-0.67,17.49,2.15,23.3,7.53c4.49,4.16,6.97,9.56,6.97,15.2v141.89
			c0,12.11-11.48,22.13-26.13,22.8l-221.84,10.2C1063.67,2463.27,1063.14,2463.28,1062.61,2463.28z"/>
	</g>
</g>
<g id="mail2" class="st0">
	<g class="st13">
		<g>
			<path class="st4" d="M1039.12,1129.55H548.4c-19.81,0-35.87-14.69-35.87-32.82V804.41c0-17.41,14.87-31.8,33.88-32.77
				l509.65-25.99c21.34-1.09,38.98,15.03,37.82,34.55l-18.94,318.31C1073.9,1115.92,1058.17,1129.55,1039.12,1129.55z"/>
			<g>
				<path class="st2" d="M805.22,953.16l268.24-204.37c-5.23-2.28-11.16-3.45-17.4-3.13L546.4,771.64
					c-8.76,0.45-16.64,3.75-22.6,8.88l200.76,170.81C746.36,969.88,782.21,970.69,805.22,953.16z"/>
			</g>
		</g>
		<path class="st10" d="M767.93,943.03c-13.34,0-26.61-4.36-37.28-12.98l-75.64-61.09c-2.22-1.79-2.43-4.89-0.47-6.92
			c1.96-2.03,5.35-2.23,7.57-0.43l75.64,61.09c16.07,12.98,39.45,14.05,56.86,2.6l39.2-25.77c2.41-1.58,5.75-1.08,7.48,1.12
			c1.73,2.2,1.18,5.26-1.23,6.85l-39.2,25.77C790.92,939.8,779.4,943.03,767.93,943.03z"/>
		<path class="st10" d="M630.41,847.46c-1.26,0-2.53-0.4-3.55-1.23l-10.18-8.22c-2.22-1.79-2.43-4.89-0.47-6.92
			c1.96-2.03,5.35-2.22,7.57-0.43l10.18,8.22c2.22,1.79,2.43,4.89,0.47,6.92C633.37,846.9,631.89,847.46,630.41,847.46z"/>
	</g>
</g>
<g id="sms" class="st0">
	<g class="st13">
		<path class="st4" d="M2325.25,1176.66v224.76c0,26.7,20.98,48.7,47.66,49.95l281.06,13.21c28.51,1.34,52.35-21.41,52.35-49.95
			v-237.96c0-27.62-22.39-50-50-50h-281.06C2347.64,1126.66,2325.25,1149.04,2325.25,1176.66z"/>
		<path class="st10" d="M2427.07,1409.44c-3.63,0-6.7-0.04-9.13-0.09c-4.15-0.08-7.56-3.14-8.09-7.27
			c-0.53-4.15,2.01-7.99,6.04-9.13c21.58-6.05,45.12-16.33,62.45-24.66c-82.65-6.74-99.15-49.19-102.34-68.6
			c-8.05-48.97,34.45-104.37,94.73-123.51c61.52-19.51,123.83-12.48,158.77,17.92c18.57,16.16,38.71,47.11,29.21,102.79
			C2640.96,1401.09,2478.48,1409.44,2427.07,1409.44z M2419.97,1407.39L2419.97,1407.39L2419.97,1407.39z M2418.25,1394.35h0.02
			C2418.27,1394.35,2418.26,1394.35,2418.25,1394.35z M2537.66,1353.61l-26.18,14.6c-1.38,0.77-24.43,13.55-52.46,25.27
			c63.81-3.85,171.76-21.87,184.92-99.09c6.68-39.2-1.48-69.13-24.27-88.96c-35.35-30.77-97.98-29.67-144.39-14.94
			c-52.56,16.69-91.24,65.58-84.47,106.78c6.14,37.4,48.73,58.32,116.88,56.89L2537.66,1353.61z"/>
	</g>
</g>
<g id="calendar" class="st0">
	<g class="st13">
		<linearGradient id="SVGID_41_" gradientUnits="userSpaceOnUse" x1="2601.1665" y1="153.7846" x2="2587.7168" y2="654.5117">
			<stop  offset="0" style="stop-color:#09005D"/>
			<stop  offset="1" style="stop-color:#1A0F91"/>
		</linearGradient>
		<path class="st47" d="M2655.85,695.58c-12.06-121.64-42.24-423.76-48.82-467.92c-8.28-55.5-76.29-43.25-76.29-43.25l-14.56,561.65
			H2611c12.74,0,24.9-5.49,33.44-15.13C2652.98,721.3,2657.13,708.5,2655.85,695.58z"/>
		
			<linearGradient id="SVGID_42_" gradientUnits="userSpaceOnUse" x1="-2490.2705" y1="5896.4546" x2="-3213.2585" y2="6846.0791" gradientTransform="matrix(0.0212 -0.9997 0.9997 0.0212 -3980.7454 -2427.1309)">
			<stop  offset="0" style="stop-color:#09005D"/>
			<stop  offset="1" style="stop-color:#1A0F91"/>
		</linearGradient>
		<path class="st48" d="M1888.67,760.22c-29.61-0.63-53.11-25.14-52.48-54.75l9.67-455.96c0.53-25.15,20.69-45.48,45.84-46.23
			l661.77-19.63c19.68-0.58,35.93,15.24,35.88,34.93l-1.59,522.79c-0.06,18.5-15.28,33.36-33.77,32.96L1888.67,760.22z"/>
		<g>
			<path class="st4" d="M1846.02,721.94c-9.48-0.15-16.63-8.63-15.16-17.99c9.76-62.09,40.42-275.65,30.59-452.96
				c-0.45-8.09,5.82-14.96,13.91-15.22l664.76-21.21c9.11-0.29,16.75,6.83,17.1,15.94c2.83,74.55,13.36,381.54-0.42,490.66
				c-0.84,6.64-6.55,11.58-13.24,11.47L1846.02,721.94z"/>
			<path class="st49" d="M1862.81,714.96c-9.12-0.14-16.01-8.31-14.59-17.32c9.4-59.75,38.9-265.27,29.44-435.91
				c-0.43-7.78,5.6-14.4,13.39-14.65l639.72-20.41c8.77-0.28,16.12,6.57,16.45,15.34c2.72,71.74,12.85,367.17-0.4,472.19
				c-0.81,6.39-6.3,11.14-12.74,11.04L1862.81,714.96z"/>
		</g>
		<path class="st10" d="M2256,355.5l-0.98,46.07c-0.15,7.03,5.49,12.82,12.52,12.86l47.26,0.27c6.88,0.04,12.52-5.45,12.67-12.33
			l1.03-48.44c0.15-7.28-5.88-13.17-13.15-12.85l-47.31,2.1C2261.41,343.48,2256.14,348.86,2256,355.5z"/>
		<path class="st10" d="M2090.78,414.05l47.26,0.27c6.88,0.04,12.52-5.45,12.67-12.33l0.87-41.2c0.15-7.24-5.81-13.12-13.05-12.86
			l-47.3,1.7c-6.67,0.24-12,5.64-12.14,12.32l-0.83,39.23C2078.11,408.22,2083.75,414.01,2090.78,414.05z"/>
		<path class="st10" d="M2132.19,619.27l-44.95-0.44c-7.53-0.07-13.72,5.93-13.88,13.45l-0.89,42.1
			c-0.16,7.48,5.69,13.71,13.16,14.03l44.92,1.9c7.7,0.33,14.16-5.74,14.33-13.44l0.92-43.56
			C2145.96,625.66,2139.84,619.34,2132.19,619.27z"/>
		<path class="st10" d="M2056.56,673.37l0.87-41.16c0.16-7.52-5.85-13.72-13.38-13.8l-45.42-0.44c-7.4-0.07-13.48,5.82-13.64,13.22
			l-0.84,39.68c-0.16,7.35,5.59,13.47,12.94,13.79l45.39,1.92C2050.05,686.91,2056.4,680.94,2056.56,673.37z"/>
		<path class="st10" d="M2060.5,487.55l0.72-33.79c0.17-8.16-6.4-14.86-14.56-14.85l-43.38,0.08c-7.9,0.01-14.34,6.33-14.51,14.23
			l-0.69,32.29c-0.17,7.96,6.1,14.58,14.06,14.84l43.35,1.42C2053.58,502.04,2060.33,495.65,2060.5,487.55z"/>
		<path class="st10" d="M2058.42,585.74l1.1-51.68c0.16-7.4-5.67-13.55-13.07-13.79l-44.36-1.45c-8.09-0.27-14.84,6.13-15.01,14.22
			l-1.11,52.12c-0.16,7.57,5.93,13.8,13.51,13.8l45.43,0C2052.26,598.97,2058.26,593.09,2058.42,585.74z"/>
		<path class="st10" d="M2179.16,414.55l47.26,0.27c6.88,0.04,12.52-5.45,12.67-12.33l0.95-44.87c0.15-7.24-5.81-13.12-13.05-12.86
			l-47.3,1.7c-6.67,0.24-12,5.65-12.14,12.32l-0.91,42.91C2166.49,408.72,2172.13,414.51,2179.16,414.55z"/>
		<path class="st10" d="M2146.81,585.52l1.03-48.33c0.16-7.53-5.77-13.78-13.29-14.03l-44.93-1.47c-7.65-0.25-14.03,5.8-14.19,13.45
			l-1.06,49.8c-0.16,7.7,6.04,14.04,13.74,14.04l44.96,0.01C2140.54,598.98,2146.65,593,2146.81,585.52z"/>
		<path class="st10" d="M2227.65,438.59l-51.61,0.09c-5.67,0.01-10.29,4.54-10.41,10.2l-0.99,46.48
			c-0.12,5.71,4.37,10.46,10.08,10.64l51.57,1.69c5.8,0.19,10.64-4.4,10.77-10.2l1.02-48.26
			C2238.21,443.39,2233.5,438.58,2227.65,438.59z"/>
		<path class="st10" d="M2253.97,451.35l-0.94,44.26c-0.15,7.18,5.5,13.14,12.67,13.38l46.22,1.51c7.29,0.24,13.38-5.52,13.53-12.82
			l0.97-45.86c0.16-7.35-5.77-13.4-13.13-13.38l-46.25,0.08C2259.93,438.53,2254.12,444.23,2253.97,451.35z"/>
		<path class="st10" d="M2086.41,503.12l51.57,1.69c5.8,0.19,10.64-4.4,10.77-10.2l0.96-45.21c0.12-5.85-4.59-10.66-10.44-10.65
			l-51.61,0.09c-5.67,0.01-10.29,4.54-10.41,10.21l-0.92,43.43C2076.2,498.18,2080.7,502.93,2086.41,503.12z"/>
		<path class="st10" d="M2222.87,526.05l-44.93-1.47c-7.65-0.25-14.03,5.8-14.19,13.45l-1,46.92c-0.16,7.7,6.04,14.04,13.74,14.04
			l44.96,0.01c7.48,0,13.59-5.98,13.75-13.46l0.96-45.45C2236.32,532.55,2230.4,526.29,2222.87,526.05z"/>
		<path class="st10" d="M2312.75,528.99l-48.08-1.57c-6.77-0.22-12.43,5.13-12.57,11.91l-1,47.24c-0.14,6.82,5.35,12.43,12.17,12.43
			l48.11,0.01c6.62,0,12.03-5.29,12.17-11.92l0.97-45.67C2324.66,534.75,2319.41,529.2,2312.75,528.99z"/>
		<path class="st10" d="M2009.01,412.98l35.87,0.2c9.54,0.05,17.36-7.56,17.56-17.1l0.63-29.59c0.19-8.94-7.18-16.2-16.12-15.88
			l-39.92,1.43c-9.06,0.33-16.29,7.66-16.48,16.72l-0.52,24.71C1989.81,404.14,1998.35,412.92,2009.01,412.98z"/>
		<path class="st10" d="M1969.04,632.4c0.17-8.09-6.3-14.77-14.4-14.85l-15.62-0.15c-11.87-0.12-21.58,7.73-21.79,17.62l-0.61,28.61
			c-0.21,9.8,9.01,18.02,20.78,18.52l16.77,0.71c7.57,0.32,13.92-5.64,14.08-13.21L1969.04,632.4z"/>
		<path class="st10" d="M2471.45,622.56l-30.73-0.3c-7.54-0.07-13.73,5.93-13.89,13.47l-1.14,53.6
			c-0.16,7.48,5.69,13.72,13.17,14.04l30.59,1.29c12.2,0.52,22.43-7.43,22.64-17.6l0.98-45.96
			C2493.29,631.02,2483.56,622.68,2471.45,622.56z"/>
		<path class="st10" d="M1940.26,598.95l15.25,0c7.91,0,14.37-6.32,14.54-14.23l1.11-52.54c0.17-7.96-6.1-14.58-14.06-14.84
			l-15.35-0.5c-12.1-0.4-22.18,7.53-22.39,17.61l-0.97,45.96C1918.17,590.57,1928.05,598.95,1940.26,598.95z"/>
		<path class="st10" d="M1941.54,498.38l19.2,0.63c6.12,0.2,11.22-4.64,11.35-10.76l0.8-37.95c0.13-6.17-4.84-11.24-11.01-11.23
			l-19.39,0.04c-11.76,0.02-21.29,7.83-21.49,17.62l-0.49,23.12C1920.31,489.73,1929.68,497.99,1941.54,498.38z"/>
		<path class="st10" d="M2476.36,335.19l-30.81,1.11c-6.94,0.25-12.48,5.87-12.63,12.82l-1.12,52.94
			c-0.16,7.32,5.71,13.34,13.03,13.38l31.73,0.18c11.83,0.07,21.48-7.77,21.69-17.62l0.94-44.29
			C2499.4,343.24,2488.92,334.74,2476.36,335.19z"/>
		<path class="st10" d="M2220.56,620.13l-44.95-0.44c-7.53-0.07-13.72,5.93-13.88,13.46l-0.95,44.98
			c-0.16,7.48,5.69,13.71,13.16,14.03l44.92,1.9c7.7,0.33,14.16-5.74,14.33-13.44l0.99-46.44
			C2234.33,626.51,2228.21,620.2,2220.56,620.13z"/>
		<path class="st10" d="M2475.06,438.14l-31.23,0.06c-7.12,0.01-12.93,5.71-13.08,12.83l-1.07,50.36
			c-0.15,7.18,5.5,13.14,12.67,13.38l31.36,1.03c12.1,0.4,22.18-7.53,22.39-17.61l0.88-41.5
			C2497.21,446.51,2487.29,438.12,2475.06,438.14z"/>
		<path class="st10" d="M2473.93,534.26l-32.6-1.07c-6.77-0.22-12.43,5.13-12.57,11.91l-0.88,41.47
			c-0.14,6.82,5.35,12.43,12.17,12.43l32.76,0c11.78,0,21.33-7.82,21.54-17.62l0.61-28.61
			C2495.16,542.9,2485.79,534.65,2473.93,534.26z"/>
		<path class="st10" d="M2340.43,542.21l-0.94,44.35c-0.14,6.82,5.35,12.43,12.17,12.43l48.11,0.01c6.62,0,12.03-5.29,12.17-11.92
			l0.91-42.79c0.14-6.67-5.11-12.21-11.77-12.42L2353,530.3C2346.23,530.08,2340.57,535.44,2340.43,542.21z"/>
		<path class="st10" d="M2397.28,621.84l-44.93-0.44c-7.54-0.07-13.73,5.93-13.89,13.47l-1.08,50.72
			c-0.16,7.48,5.69,13.72,13.17,14.04l44.9,1.9c7.71,0.33,14.17-5.74,14.34-13.45l1.11-52.18
			C2411.07,628.23,2404.94,621.92,2397.28,621.84z"/>
		<path class="st10" d="M1944.07,412.61l18.8,0.11c6.01,0.03,10.93-4.76,11.06-10.76l0.79-37.11c0.13-6.32-5.07-11.45-11.39-11.22
			l-19.92,0.71c-11.4,0.41-20.4,8.1-20.61,17.6l-0.47,22.14C1922.12,404.18,1931.92,412.54,1944.07,412.61z"/>
		<path class="st10" d="M2308.91,620.98l-44.17-0.43c-7.96-0.08-14.49,6.26-14.66,14.21l-1,47.08c-0.16,7.48,5.7,13.72,13.17,14.04
			l44.9,1.9c7.71,0.33,14.17-5.74,14.34-13.45l1.05-49.3C2322.7,627.38,2316.57,621.06,2308.91,620.98z"/>
		<path class="st10" d="M2344.46,352.29l-1.05,49.27c-0.16,7.32,5.71,13.34,13.03,13.38l46.24,0.26
			c7.16,0.04,13.02-5.67,13.18-12.83l1.09-51.19c0.16-7.53-6.04-13.64-13.57-13.37l-46.28,1.66
			C2350.15,339.72,2344.61,345.35,2344.46,352.29z"/>
		<path class="st10" d="M2342.36,451.19l-1,47.31c-0.15,7.18,5.5,13.14,12.67,13.38l46.22,1.51c7.29,0.24,13.38-5.52,13.53-12.82
			l1.04-48.91c0.16-7.35-5.77-13.4-13.12-13.38l-46.25,0.08C2348.32,438.37,2342.51,444.07,2342.36,451.19z"/>
		<path class="st3" d="M1938.94,314.42l2.13,15.6c0.68,5,4.9,8.75,9.94,8.86l0.74,0.02c5.66,0.12,10.34-4.37,10.46-10.03l0.34-15.97
			c0.13-6.19-5.21-11.08-11.37-10.4l-3.2,0.35C1942.24,303.48,1938.16,308.71,1938.94,314.42z"/>
		<path class="st3" d="M2011.36,310.4l2.13,15.6c0.68,5,4.9,8.75,9.94,8.86l0.74,0.02c5.66,0.12,10.34-4.37,10.46-10.03l0.34-15.97
			c0.13-6.19-5.21-11.08-11.37-10.4l-3.2,0.35C2014.66,299.46,2010.58,304.69,2011.36,310.4z"/>
		<path class="st3" d="M2100.45,311.63l2.13,15.6c0.68,5,4.9,8.75,9.94,8.86l0.74,0.02c5.66,0.12,10.34-4.37,10.46-10.03l0.34-15.97
			c0.13-6.19-5.21-11.08-11.37-10.4l-3.2,0.35C2103.76,300.69,2099.67,305.92,2100.45,311.63z"/>
		<path class="st3" d="M2187.26,307.74l2.13,15.6c0.68,5,4.9,8.75,9.94,8.86l0.74,0.01c5.66,0.12,10.34-4.37,10.46-10.03l0.34-15.97
			c0.13-6.19-5.21-11.08-11.37-10.4l-3.21,0.35C2190.56,296.8,2186.48,302.03,2187.26,307.74z"/>
		<path class="st3" d="M2276.42,296.4l2.13,15.6c0.68,5,4.9,8.75,9.94,8.86l0.74,0.02c5.66,0.12,10.34-4.37,10.46-10.03l0.34-15.97
			c0.13-6.19-5.21-11.08-11.37-10.4l-3.21,0.35C2279.72,285.46,2275.64,290.69,2276.42,296.4z"/>
		<path class="st3" d="M2370.87,298.41l2.13,15.6c0.68,5,4.9,8.75,9.94,8.86l0.74,0.02c5.66,0.12,10.34-4.37,10.46-10.03l0.34-15.97
			c0.13-6.19-5.21-11.08-11.37-10.4l-3.21,0.35C2374.17,287.47,2370.09,292.7,2370.87,298.41z"/>
		<path class="st3" d="M2450.59,296.74l2.13,15.6c0.68,5,4.9,8.75,9.94,8.86l0.74,0.02c5.66,0.12,10.34-4.37,10.46-10.03l0.34-15.97
			c0.13-6.19-5.21-11.08-11.37-10.4l-3.2,0.35C2453.89,285.8,2449.81,291.03,2450.59,296.74z"/>
		<g>
			<linearGradient id="SVGID_43_" gradientUnits="userSpaceOnUse" x1="2518.8867" y1="-93.3756" x2="2326.4573" y2="512.6076">
				<stop  offset="0" style="stop-color:#FF928E"/>
				<stop  offset="1" style="stop-color:#FE7062"/>
			</linearGradient>
			<path class="st50" d="M2420.32,292.44c-0.2-3.37-3.72-4.82-6.31-2.77c-7.33,5.77-10.31,14.74-13.92,23.1
				c-4.21,9.74-8.24,19.56-11.82,29.55c-3.78,10.53-7,21.26-9.45,32.14c-4.86-13.01-10.51-25.67-17.68-37.69
				c-1.9-3.19-7.28-1.32-6.21,2.47c6.2,22.03,13.83,43.62,19.66,65.76c2.06,7.81,12.75,5.97,13.54-1.54
				c2.17-20.51,7.13-40.13,14.16-59.5c3.34-9.21,7.07-18.27,10.94-27.27C2416.65,308.72,2420.83,301.29,2420.32,292.44z"/>
			<linearGradient id="SVGID_44_" gradientUnits="userSpaceOnUse" x1="2534.6257" y1="-88.3779" x2="2342.1963" y2="517.6056">
				<stop  offset="0" style="stop-color:#FF928E"/>
				<stop  offset="1" style="stop-color:#FE7062"/>
			</linearGradient>
			<path class="st51" d="M2430.39,308.78c-6.37-1.19-8.69,6.97-2.85,9.54c38.68,17.02,43.73,64.97,15.79,94
				c-12.92,13.43-30.07,23.85-46.31,32.81c-16.47,9.09-34.85,16.03-53.96,14.11c-44.3-4.45-50.32-49.54-37.07-84.33
				c12.74-33.46,40.02-59.29,73.42-71.68c4.31-1.6,2.64-8.62-1.78-7.04c-31.34,11.24-58.01,33.41-74.53,62.42
				c-15.2,26.68-24.32,64.32-4.42,91.11c20.59,27.72,59.67,28.21,89.11,16.66c32.39-12.71,72.71-36.29,85.6-70.51
				C2486.89,360.04,2470.22,316.24,2430.39,308.78z"/>
		</g>
		<g>
			<path class="st4" d="M2589.35,737.4c-0.92,0-1.67-0.74-1.68-1.67l-2.04-294.37c-0.01-0.93,0.74-1.68,1.67-1.69h0.01
				c0.92,0,1.67,0.74,1.68,1.67l2.04,294.37c0.01,0.93-0.74,1.68-1.67,1.69H2589.35z"/>
			<path class="st4" d="M2586.84,375.44c-0.92,0-1.67-0.74-1.68-1.67l-0.71-102.81c-0.01-0.93,0.74-1.68,1.67-1.69h0.01
				c0.92,0,1.67,0.74,1.68,1.67l0.71,102.81c0.01,0.93-0.74,1.68-1.67,1.69L2586.84,375.44z"/>
		</g>
		<circle class="st4" cx="1956.78" cy="271.18" r="17.94"/>
		<circle class="st4" cx="2103.74" cy="269.8" r="17.94"/>
		<circle class="st4" cx="2252.08" cy="264.97" r="17.94"/>
		<circle class="st4" cx="2399.04" cy="258.07" r="17.94"/>
		<g>
			<path class="st52" d="M2412.68,133.79c-30.18,6.59-27.34,85.99-24.91,118.23c0.57,7.59,6.89,13.44,14.5,13.44
				c2.11,0,4.12-0.91,5.54-2.48c1.41-1.57,2.08-3.67,1.86-5.77c-2.61-24.37-8.16-94.54,14.07-98.29c0,0,15.94-2.82,18.62,28.05
				h17.24C2459.6,186.97,2450.63,125.51,2412.68,133.79z"/>
			<path class="st52" d="M2265.72,137.87c-30.18,6.59-27.34,86.02-24.91,118.26c0.57,7.59,6.89,13.45,14.5,13.45
				c2.11,0,4.12-0.9,5.54-2.47c1.41-1.57,2.08-3.67,1.86-5.77c-2.61-24.37-8.16-94.59,14.07-98.34c0,0,15.94-2.2,18.62,28h17.24
				C2312.64,190.99,2303.67,129.59,2265.72,137.87z"/>
			<path class="st52" d="M2118.76,141.97c-30.18,6.59-27.34,86.04-24.91,118.28c0.57,7.59,6.89,13.46,14.5,13.46
				c2.11,0,4.12-0.9,5.54-2.47c1.41-1.57,2.08-3.67,1.86-5.77c-2.61-24.37-8.16-94.63,14.07-98.38c0,0,15.93-1.79,18.61,28.56
				l17.25-0.6C2165.68,195.06,2156.71,133.69,2118.76,141.97z"/>
			<path class="st52" d="M1971.8,146.72c-30.18,6.59-27.34,86.08-24.91,118.32c0.57,7.59,6.89,13.48,14.5,13.48
				c2.11,0,4.12-0.89,5.54-2.46c1.41-1.57,2.08-3.66,1.86-5.76c-2.61-24.37-8.16-94.71,14.07-98.46c0,0,15.94-2.32,18.62,27.88
				h17.24C2018.72,199.72,2009.75,138.44,1971.8,146.72z"/>
		</g>
	</g>
</g>
</svg>
