<svg xmlns="http://www.w3.org/2000/svg" xmlns:xlink="http://www.w3.org/1999/xlink" viewBox="0 0 2786.58 2788.66"><defs><style>.cls-1{isolation:isolate;}.cls-2{fill:url(#linear-gradient);}.cls-3{fill:#bdd0fb;}.cls-11,.cls-16,.cls-17,.cls-4,.cls-8{fill:#fff;}.cls-4{mix-blend-mode:soft-light;}.cls-5{fill:#91b3fa;}.cls-6{fill:url(#linear-gradient-2);}.cls-7{fill:url(#linear-gradient-3);}.cls-8{opacity:0.78;}.cls-9{fill:url(#linear-gradient-4);}.cls-10{fill:url(#linear-gradient-5);}.cls-11{opacity:0.72;}.cls-12{fill:url(#linear-gradient-6);}.cls-13{fill:url(#linear-gradient-7);}.cls-14{fill:url(#linear-gradient-8);}.cls-15{fill:url(#linear-gradient-9);}.cls-16{opacity:0.6;}.cls-18{fill:url(#linear-gradient-10);}.cls-19{fill:url(#linear-gradient-11);}.cls-20{fill:#7d97f4;}.cls-21{fill:url(#linear-gradient-12);}.cls-22{fill:url(#linear-gradient-13);}.cls-23{fill:url(#linear-gradient-14);}.cls-24{fill:url(#linear-gradient-15);}.cls-25{fill:url(#linear-gradient-16);}.cls-26{fill:url(#linear-gradient-17);}.cls-27{fill:url(#linear-gradient-18);}.cls-28{fill:url(#linear-gradient-19);}.cls-29{fill:url(#linear-gradient-20);}.cls-30{fill:url(#linear-gradient-21);}.cls-31{fill:url(#linear-gradient-22);}.cls-32{fill:url(#linear-gradient-23);}.cls-33{fill:url(#linear-gradient-24);}.cls-34{fill:url(#linear-gradient-25);}.cls-35{fill:url(#linear-gradient-26);}.cls-36{fill:url(#linear-gradient-27);}.cls-37{fill:url(#linear-gradient-28);}.cls-38{fill:url(#linear-gradient-29);}.cls-39{fill:url(#linear-gradient-30);}.cls-40{fill:url(#linear-gradient-31);}.cls-41{fill:url(#linear-gradient-32);}.cls-42{fill:url(#linear-gradient-33);}.cls-43{fill:url(#linear-gradient-34);}.cls-44{fill:url(#linear-gradient-35);}.cls-45{fill:url(#linear-gradient-36);}.cls-46{fill:url(#linear-gradient-37);}.cls-47{fill:url(#linear-gradient-38);}.cls-48{fill:url(#linear-gradient-39);}.cls-49{fill:url(#linear-gradient-40);}.cls-50{fill:url(#linear-gradient-41);}.cls-51{fill:url(#linear-gradient-42);}.cls-52{fill:url(#linear-gradient-43);}.cls-53{fill:url(#linear-gradient-44);}</style><linearGradient id="linear-gradient" x1="2995.04" y1="2812.82" x2="987.78" y2="1056.46" gradientUnits="userSpaceOnUse"><stop offset="0" stop-color="#dae3fe"/><stop offset="1" stop-color="#e9effd"/></linearGradient><linearGradient id="linear-gradient-2" x1="550.26" y1="490.24" x2="-2396.9" y2="3849.52" gradientTransform="matrix(-1, 0, 0, 1, 1152.88, 0)" gradientUnits="userSpaceOnUse"><stop offset="0" stop-color="#09005d"/><stop offset="1" stop-color="#1a0f91"/></linearGradient><linearGradient id="linear-gradient-3" x1="2001.46" y1="1390.12" x2="4010.29" y2="1390.12" gradientUnits="userSpaceOnUse"><stop offset="0" stop-color="#4f52ff"/><stop offset="1" stop-color="#4042e2"/></linearGradient><linearGradient id="linear-gradient-4" x1="2693.49" y1="-847.07" x2="2247.86" y2="185.97" xlink:href="#linear-gradient-3"/><linearGradient id="linear-gradient-5" x1="-1275.72" y1="10403.06" x2="-546.61" y2="9081.55" gradientTransform="matrix(0.12, -0.99, -0.99, -0.12, 3964.66, 5118.52)" gradientUnits="userSpaceOnUse"><stop offset="0" stop-color="#ff928e"/><stop offset="1" stop-color="#fe7062"/></linearGradient><linearGradient id="linear-gradient-6" x1="-12.64" y1="9643.59" x2="716.53" y2="8321.97" gradientTransform="matrix(-0.03, -1, -1, 0.03, 3988.21, 4623.78)" xlink:href="#linear-gradient-5"/><linearGradient id="linear-gradient-7" x1="6265.08" y1="-10413.76" x2="6994.25" y2="-11735.38" gradientTransform="matrix(-1, 0, 0, 1, 1146.17, -5.67)" xlink:href="#linear-gradient-5"/><linearGradient id="linear-gradient-8" x1="2601.17" y1="153.78" x2="2587.72" y2="654.51" gradientTransform="matrix(1, 0, 0, 1, 0, 0)" xlink:href="#linear-gradient-2"/><linearGradient id="linear-gradient-9" x1="-2490.27" y1="5896.45" x2="-3213.26" y2="6846.08" gradientTransform="matrix(0.02, -1, 1, 0.02, -3980.75, -2427.13)" xlink:href="#linear-gradient-2"/><linearGradient id="linear-gradient-10" x1="2518.89" y1="-93.38" x2="2326.46" y2="512.61" gradientTransform="matrix(1, 0, 0, 1, 0, 0)" xlink:href="#linear-gradient-5"/><linearGradient id="linear-gradient-11" x1="2534.63" y1="-88.38" x2="2342.2" y2="517.61" gradientTransform="matrix(1, 0, 0, 1, 0, 0)" xlink:href="#linear-gradient-5"/><linearGradient id="linear-gradient-12" x1="163.62" y1="1765.18" x2="406.68" y2="1415.78" gradientUnits="userSpaceOnUse"><stop offset="0" stop-color="#e1473d"/><stop offset="1" stop-color="#e9605a"/></linearGradient><linearGradient id="linear-gradient-13" x1="-2878.52" y1="1008.4" x2="-2697.54" y2="1420.17" gradientTransform="matrix(-0.98, -0.21, -0.21, 0.98, -1910.84, -219.56)" gradientUnits="userSpaceOnUse"><stop offset="0" stop-color="#febbba"/><stop offset="1" stop-color="#ff928e"/></linearGradient><linearGradient id="linear-gradient-14" x1="-2177.8" y1="2758.44" x2="-2094.73" y2="2758.44" gradientTransform="matrix(-1, 0, 0, 1, -2075.43, 0)" xlink:href="#linear-gradient-2"/><linearGradient id="linear-gradient-15" x1="-2528.81" y1="3086.02" x2="-2409.27" y2="1688.86" gradientTransform="matrix(-1, 0, 0, 1, -2075.43, 0)" xlink:href="#linear-gradient-13"/><linearGradient id="linear-gradient-16" x1="-2563.73" y1="2743.27" x2="-2429.32" y2="2743.27" gradientTransform="matrix(-1, 0, 0, 1, -2075.43, 0)" xlink:href="#linear-gradient-2"/><linearGradient id="linear-gradient-17" x1="-2288.34" y1="3106.81" x2="-2168.77" y2="1709.28" gradientTransform="matrix(-1, 0, 0, 1, -2075.43, 0)" xlink:href="#linear-gradient-13"/><linearGradient id="linear-gradient-18" x1="326.03" y1="1708.21" x2="583.2" y2="1708.21" xlink:href="#linear-gradient"/><linearGradient id="linear-gradient-19" x1="214.39" y1="2095.91" x2="517.73" y2="2095.91" xlink:href="#linear-gradient-3"/><linearGradient id="linear-gradient-20" x1="-2541.92" y1="1708.84" x2="-2519.46" y2="1544.56" gradientTransform="matrix(-1, 0, 0, 1, -2075.43, 0)" xlink:href="#linear-gradient-13"/><linearGradient id="linear-gradient-21" x1="-2718.21" y1="1202.17" x2="-2522.27" y2="853.47" gradientTransform="matrix(-0.98, -0.19, -0.19, 0.98, -1926.24, -196.36)" xlink:href="#linear-gradient-13"/><linearGradient id="linear-gradient-22" x1="147.38" y1="1753.88" x2="390.43" y2="1404.48" xlink:href="#linear-gradient-12"/><linearGradient id="linear-gradient-23" x1="-2676.5" y1="1225.6" x2="-2480.57" y2="876.91" gradientTransform="matrix(-0.98, -0.19, -0.19, 0.98, -1926.24, -196.36)" xlink:href="#linear-gradient-13"/><linearGradient id="linear-gradient-24" x1="-2914.28" y1="1024.12" x2="-2733.3" y2="1435.89" xlink:href="#linear-gradient-13"/><linearGradient id="linear-gradient-25" x1="795.24" y1="1262.47" x2="843.98" y2="1262.47" gradientTransform="matrix(1, 0, 0, 1, 0, 0)" xlink:href="#linear-gradient-13"/><linearGradient id="linear-gradient-26" x1="-3775.46" y1="1765.4" x2="-3990.82" y2="1824.43" gradientTransform="matrix(-1, -0.05, -0.05, 1, -3313.24, -78.06)" xlink:href="#linear-gradient-2"/><linearGradient id="linear-gradient-27" x1="-3995.26" y1="1734.31" x2="-4147.18" y2="1894.87" gradientTransform="matrix(-1, 0, 0, 1, -3332.74, 0)" xlink:href="#linear-gradient-2"/><linearGradient id="linear-gradient-28" x1="53.94" y1="1921.32" x2="523.58" y2="1724.85" gradientTransform="matrix(1, 0, 0, 1, 0, 0)" xlink:href="#linear-gradient-13"/><linearGradient id="linear-gradient-29" x1="2427.94" y1="2430.01" x2="2358.12" y2="2536.24" gradientTransform="translate(66)" gradientUnits="userSpaceOnUse"><stop offset="0" stop-color="#fdf53f"/><stop offset="0.66" stop-color="#e57a58"/><stop offset="1" stop-color="#d93c65"/></linearGradient><linearGradient id="linear-gradient-30" x1="2029.8" y1="2733.35" x2="1947.93" y2="2836.28" gradientTransform="translate(66)" xlink:href="#linear-gradient-2"/><linearGradient id="linear-gradient-31" x1="2044.98" y1="2714.07" x2="1997.43" y2="2773.84" gradientTransform="translate(66)" xlink:href="#linear-gradient-13"/><linearGradient id="linear-gradient-32" x1="3580.38" y1="3501.18" x2="2795.51" y2="2974.56" xlink:href="#linear-gradient-3"/><linearGradient id="linear-gradient-33" x1="1815.39" y1="2705.56" x2="1845.27" y2="2810.38" gradientTransform="translate(59.29 -5.67)" xlink:href="#linear-gradient-13"/><linearGradient id="linear-gradient-34" x1="1951.77" y1="2205.97" x2="1966.17" y2="2076.39" gradientTransform="matrix(-1, 0, 0, 1, 4588.43, 0)" xlink:href="#linear-gradient-13"/><linearGradient id="linear-gradient-35" x1="1935.53" y1="2067.65" x2="1878.21" y2="1878.59" gradientTransform="matrix(-1, -0.09, -0.09, 1, 4662.36, 192.7)" xlink:href="#linear-gradient-13"/><linearGradient id="linear-gradient-36" x1="1892.73" y1="1727.68" x2="1946.12" y2="2032.22" gradientTransform="matrix(-1, -0.09, -0.09, 1, 4662.36, 192.7)" xlink:href="#linear-gradient-2"/><linearGradient id="linear-gradient-37" x1="1888.14" y1="2090.27" x2="1830.82" y2="1901.21" gradientTransform="matrix(-1, -0.09, -0.09, 1, 4662.36, 192.7)" xlink:href="#linear-gradient-13"/><linearGradient id="linear-gradient-38" x1="1759.98" y1="2738.94" x2="1787.84" y2="2836.7" gradientTransform="translate(66)" xlink:href="#linear-gradient-2"/><linearGradient id="linear-gradient-39" x1="-3839.04" y1="2302.57" x2="-3641.17" y2="2302.57" gradientTransform="matrix(-1, 0, 0, 1, -1655.14, 0)" xlink:href="#linear-gradient-2"/><linearGradient id="linear-gradient-40" x1="-3815.03" y1="2389.06" x2="-3973.24" y2="2432.42" gradientTransform="matrix(-1, 0, 0, 1, -1655.14, 0)" xlink:href="#linear-gradient-2"/><linearGradient id="linear-gradient-41" x1="-4129.61" y1="1497.62" x2="-3766.59" y2="1000.98" gradientTransform="matrix(-0.95, -0.31, -0.31, 0.95, -1100.09, -215.93)" xlink:href="#linear-gradient-13"/><linearGradient id="linear-gradient-42" x1="2518.56" y1="1823.08" x2="2690.72" y2="2775.05" gradientTransform="matrix(1, 0, 0, 1, 0, 0)" xlink:href="#linear-gradient-5"/><linearGradient id="linear-gradient-43" x1="2502.73" y1="2410.99" x2="2622.57" y2="2410.99" xlink:href="#linear-gradient-12"/><linearGradient id="linear-gradient-44" x1="2285.68" y1="2657.74" x2="2341.38" y2="2014.66" xlink:href="#linear-gradient-3"/></defs><title>index_img</title><g class="cls-1"><g id="Illustration"><path class="cls-2" d="M2653.91,1900.66c-259.42,610.83-950.45,953-1549.72,860.72-97.51-15-364.84-59.76-601.53-270.84C47,2084.2-50.42,1279.6,317.13,712.58,584.64,299.89,1064.18,66,1519.84,77.65c98.15,2.52,474.3,18.06,804.87,290.64,48.55,40,155.64,135.17,252.16,286.1C2803.5,1008.8,2823,1502.58,2653.91,1900.66Z" transform="translate(-6.71 -5.67)"/><path class="cls-3" d="M419.78,25.24c-4.4-14,11.92-25.29,23.59-16.45C561.87,98.54,853,374.06,844.7,910.48c-10.37,673,153.79,900.75,341.77,1030.33,0,0-244-44.41-419-274.6C337.87,1101,498.19,273.43,419.78,25.24Z" transform="translate(-6.71 -5.67)"/><path class="cls-4" d="M523.83,224.05c21.34,72.53,41.24,145.45,58.44,219q26.37,110.15,46,221.68C641,739.07,652.31,813.65,660.46,888.6c8.5,74.91,13.76,150.1,18.79,225.61,5.44,75.44,10.49,151.47,23.34,227.21,12.76,75.59,34.74,150.88,69.83,219.92,8.77,17.2,17.88,34.31,27.91,50.72,9.73,16.6,20.2,32.77,31,48.74a824,824,0,0,0,71.46,90.88c52.11,57,112.85,106,178.28,146a14.61,14.61,0,0,0,15.61-24.7l0,0c-15.64-10.18-31.15-20.53-46.13-31.53-7.59-5.38-14.92-11.09-22.35-16.65-7.21-5.84-14.66-11.41-21.68-17.47a771.85,771.85,0,0,1-80.07-77c-49.74-54.85-91.55-117.42-125.19-183.32a735.29,735.29,0,0,1-41.72-102.7,835.05,835.05,0,0,1-26.36-108.17c-13-73.46-18.66-148.67-24.64-224.07S695.74,960.89,686,885.55Q678.86,829,669.68,772.8c-2.94-18.75-6.25-37.44-9.53-56.14q-5.19-28-10.73-55.91Q627,549.12,597.65,439.14C577.74,366,555.9,293.33,531.3,221.67a3.92,3.92,0,0,0-7.47,2.38Z" transform="translate(-6.71 -5.67)"/><path class="cls-5" d="M773.31,2017.55c-5.13,27.94-37.13,41.56-61,26.19-131.87-84.77-483-358.17-543-896C118.63,693.55,48,452.09,8.35,344.7,0,322,25.44,301.77,45.68,315.06,268.91,461.69,959.34,1005,773.31,2017.55Z" transform="translate(-6.71 -5.67)"/><path class="cls-4" d="M735.41,2024.12a11.57,11.57,0,0,1-1.7,1.3,11.1,11.1,0,0,1-15.29-3.52c-3.68-5.89-369.29-596-468.24-1224.36a11.09,11.09,0,0,1,21.92-3.45c98.23,623.75,461.48,1210.2,465.13,1216.05A11.1,11.1,0,0,1,735.41,2024.12Z" transform="translate(-6.71 -5.67)"/><path class="cls-6" d="M231.81,1390.12c0,610,513.16,1104.41,1146.18,1104.41s1174.53-516.07,1174.53-1126S2011,285.7,1378,285.7,231.81,780.17,231.81,1390.12Z" transform="translate(-6.71 -5.67)"/><path class="cls-5" d="M2462.53,1121.58a8.38,8.38,0,0,0,2-.25,7.61,7.61,0,0,0,5.62-9.34,973.52,973.52,0,0,0-46.83-131.57,8.08,8.08,0,0,0-10.37-4,7.54,7.54,0,0,0-4.21,10,954.49,954.49,0,0,1,46.11,129.54A7.88,7.88,0,0,0,2462.53,1121.58Z" transform="translate(-6.71 -5.67)"/><path class="cls-5" d="M2287.38,776.44a8.15,8.15,0,0,0,4.76-1.53,7.45,7.45,0,0,0,1.55-10.68c-212.35-271.35-554.42-433.33-915-433.33-154,0-303,30.09-442.72,89.4a7.53,7.53,0,0,0-4.05,10.06,8,8,0,0,0,10.44,3.91c137.73-58.47,284.54-88.12,436.33-88.12,355.66,0,693,159.72,902.38,427.25A8,8,0,0,0,2287.38,776.44Z" transform="translate(-6.71 -5.67)"/><path class="cls-7" d="M387.75,1390.12c0,528,444.2,956,992.15,956s1016.68-446.71,1016.68-974.69-468.74-937.3-1016.68-937.3S387.75,862.14,387.75,1390.12Z" transform="translate(-6.71 -5.67)"/><path class="cls-8" d="M2143,1340.53c2.46,40.58,38.58,71.57,80.7,69.2s74.27-37.17,71.82-77.75-38.59-71.56-80.7-69.2S2140.58,1300,2143,1340.53Z" transform="translate(-6.71 -5.67)"/><path class="cls-3" d="M492.79,1433.09c2.45,40.58,38.58,71.56,80.7,69.2s74.27-37.18,71.81-77.76-38.58-71.56-80.69-69.2S490.34,1392.5,492.79,1433.09Z" transform="translate(-6.71 -5.67)"/><path class="cls-3" d="M1529,2093.57c-41.5,7.3-69,45.64-61.42,85.63s47.37,66.48,88.87,59.18,69-45.65,61.42-85.63S1570.45,2086.27,1529,2093.57Z" transform="translate(-6.71 -5.67)"/><path class="cls-3" d="M1231.94,526.69c-41.5,7.3-69,45.64-61.42,85.63s47.36,66.48,88.87,59.18,69-45.64,61.41-85.63S1273.44,519.39,1231.94,526.69Z" transform="translate(-6.71 -5.67)"/><path class="cls-3" d="M985.9,2135.64c-7.76,18.87-5.82,36.54,4.34,39.46s24.68-10,32.44-28.87,5.82-36.54-4.33-39.46S993.66,2116.77,985.9,2135.64Z" transform="translate(-6.71 -5.67)"/><path class="cls-8" d="M1649.8,649.45c-7.77,18.87-5.83,36.54,4.33,39.47s24.68-10,32.44-28.87,5.82-36.54-4.33-39.47S1657.56,630.58,1649.8,649.45Z" transform="translate(-6.71 -5.67)"/><path class="cls-8" d="M639.26,1853.12c-16.8,12.24-24.66,28.31-17.56,35.89s26.48,3.81,43.28-8.44,24.67-28.31,17.57-35.89S656.06,1840.87,639.26,1853.12Z" transform="translate(-6.71 -5.67)"/><path class="cls-8" d="M2007.49,915.11c-16.8,12.25-24.66,28.32-17.56,35.9s26.48,3.8,43.28-8.44,24.67-28.32,17.57-35.9S2024.29,902.87,2007.49,915.11Z" transform="translate(-6.71 -5.67)"/><path class="cls-8" d="M595.72,1011.62c-19-8.73-37.44-8-41.15,1.52s8.7,24.4,27.72,33.13,37.45,8,41.16-1.53S614.74,1020.35,595.72,1011.62Z" transform="translate(-6.71 -5.67)"/><path class="cls-8" d="M2090.19,1749.42c-19-8.73-37.45-8.05-41.16,1.52s8.7,24.4,27.72,33.13,37.45,8,41.16-1.53S2109.2,1758.15,2090.19,1749.42Z" transform="translate(-6.71 -5.67)"/><path class="cls-3" d="M911.49,697.28c-11.56-17-27.67-25.61-36-19.29s-5.71,25.21,5.84,42.18,27.67,25.61,36,19.29S923,714.25,911.49,697.28Z" transform="translate(-6.71 -5.67)"/><path class="cls-3" d="M1791.14,2075.52c-11.55-17-27.67-25.61-36-19.29s-5.71,25.2,5.84,42.17,27.67,25.62,36,19.29S1802.69,2092.49,1791.14,2075.52Z" transform="translate(-6.71 -5.67)"/><path class="cls-9" d="M1341.81,1371.73l843.52,624.06C2780.7,1176.24,2167.76,486.46,1393,411Z" transform="translate(-6.71 -5.67)"/><path class="cls-10" d="M1393.85,1368.71,1957,1751.26c10.91,7.41,25.94,1,27.44-11.72l8.9-75.63c1.73-14.71,20.84-20.14,30.8-8.75l383,438c11.71,13.4-2.49,32.89-19.44,26.67l-547.69-201c-13.11-4.81-15.58-21.69-4.33-29.57l75.57-53a16.58,16.58,0,0,0,.43-27L1373,1395.74a16.6,16.6,0,0,1-3.21-23.51h0A17.89,17.89,0,0,1,1393.85,1368.71Z" transform="translate(-6.71 -5.67)"/><path class="cls-11" d="M2339.15,2081.18a14.9,14.9,0,0,0,14.54-6.15,14,14,0,0,0-1.32-18l-84.55-90.87a8.12,8.12,0,0,0-11.17-.63,7.44,7.44,0,0,0-.55,10.78l84.56,90.87c-123.72-47.32-413.92-155.14-420-156.67a7.87,7.87,0,0,0-9.59,5.44,7.7,7.7,0,0,0,5.58,9.28c8.78,2.73,231.19,85.21,419.28,155.13A16.42,16.42,0,0,0,2339.15,2081.18Z" transform="translate(-6.71 -5.67)"/><path class="cls-12" d="M1346.79,1331.45l1.21-578.1c-.2-12.8-14.5-20.76-26.11-14.53l-69,37.08c-13.43,7.21-29.32-4.5-25.6-18.88L1370,204.29c4.37-16.9,29.2-17.19,34-.38l154.52,543c3.7,13-9.07,24.74-22.37,20.57l-89.35-28c-11-3.46-22.47,4.17-23,15.35l-41.93,577.14c-.42,9.19-8.38,16.37-17.92,16.18h0C1354.53,1347.92,1346.93,1340.56,1346.79,1331.45Z" transform="translate(-6.71 -5.67)"/><path class="cls-11" d="M1511.12,693.86a8.14,8.14,0,0,0,2.89-.52,7.55,7.55,0,0,0,4.54-9.74c-2.88-8.37-64.88-229.4-117.19-416.42a15.28,15.28,0,0,0-29.43.73l-26.6,118.64a7.63,7.63,0,0,0,6.07,9.06,7.93,7.93,0,0,0,9.4-5.84l26.61-118.64c33.28,123.78,114,412.22,116.34,417.89A7.92,7.92,0,0,0,1511.12,693.86Z" transform="translate(-6.71 -5.67)"/><ellipse class="cls-13" cx="1378.31" cy="1356.78" rx="81.58" ry="78.61"/><path class="cls-14" d="M2655.85,695.58c-12.06-121.64-42.23-423.76-48.82-467.91-8.28-55.51-76.29-43.26-76.29-43.26l-14.57,561.65H2611a44.68,44.68,0,0,0,33.44-15.13A46.35,46.35,0,0,0,2655.85,695.58Z" transform="translate(-6.71 -5.67)"/><path class="cls-15" d="M1888.67,760.22a53.63,53.63,0,0,1-52.48-54.76l9.67-456a47.24,47.24,0,0,1,45.84-46.22l661.77-19.64a34.85,34.85,0,0,1,35.88,34.94l-1.59,522.79a33.08,33.08,0,0,1-33.78,33Z" transform="translate(-6.71 -5.67)"/><path class="cls-5" d="M1846,721.94a15.57,15.57,0,0,1-15.16-18c9.76-62.09,40.42-275.65,30.59-453a14.4,14.4,0,0,1,13.91-15.22l664.75-21.2a16.57,16.57,0,0,1,17.1,15.94c2.83,74.54,13.36,381.53-.42,490.66a13.13,13.13,0,0,1-13.24,11.47Z" transform="translate(-6.71 -5.67)"/><path class="cls-16" d="M1862.81,715a15,15,0,0,1-14.59-17.32c9.4-59.74,38.9-265.26,29.44-435.9a13.86,13.86,0,0,1,13.39-14.65l639.72-20.41A16,16,0,0,1,2547.23,242c2.72,71.74,12.85,367.17-.41,472.19a12.63,12.63,0,0,1-12.74,11Z" transform="translate(-6.71 -5.67)"/><path class="cls-11" d="M2256,355.5l-1,46.07a12.6,12.6,0,0,0,12.52,12.87l47.26.26a12.59,12.59,0,0,0,12.66-12.33l1-48.43a12.61,12.61,0,0,0-13.15-12.86l-47.31,2.1A12.6,12.6,0,0,0,2256,355.5Z" transform="translate(-6.71 -5.67)"/><path class="cls-11" d="M2090.78,414.05l47.26.27A12.6,12.6,0,0,0,2150.7,402l.88-41.2a12.6,12.6,0,0,0-13-12.86l-47.3,1.7A12.6,12.6,0,0,0,2079.09,362l-.83,39.23A12.6,12.6,0,0,0,2090.78,414.05Z" transform="translate(-6.71 -5.67)"/><path class="cls-11" d="M2132.19,619.27l-45-.44a13.75,13.75,0,0,0-13.87,13.46l-.9,42.1a13.75,13.75,0,0,0,13.17,14l44.92,1.9a13.74,13.74,0,0,0,14.32-13.44l.93-43.56A13.75,13.75,0,0,0,2132.19,619.27Z" transform="translate(-6.71 -5.67)"/><path class="cls-11" d="M2056.56,673.37l.87-41.16a13.52,13.52,0,0,0-13.38-13.8l-45.42-.44A13.52,13.52,0,0,0,1985,631.2l-.84,39.68a13.5,13.5,0,0,0,12.94,13.78l45.39,1.93A13.52,13.52,0,0,0,2056.56,673.37Z" transform="translate(-6.71 -5.67)"/><path class="cls-11" d="M2060.5,487.55l.72-33.78a14.54,14.54,0,0,0-14.57-14.85l-43.37.08a14.53,14.53,0,0,0-14.51,14.23l-.69,32.29a14.54,14.54,0,0,0,14.06,14.84l43.35,1.42A14.54,14.54,0,0,0,2060.5,487.55Z" transform="translate(-6.71 -5.67)"/><path class="cls-11" d="M2058.42,585.74l1.09-51.68a13.5,13.5,0,0,0-13.06-13.79l-44.36-1.45a14.54,14.54,0,0,0-15,14.22l-1.1,52.12a13.51,13.51,0,0,0,13.5,13.8h45.44A13.52,13.52,0,0,0,2058.42,585.74Z" transform="translate(-6.71 -5.67)"/><path class="cls-11" d="M2179.16,414.55l47.26.26a12.59,12.59,0,0,0,12.66-12.33l1-44.87a12.58,12.58,0,0,0-13-12.85l-47.3,1.69a12.6,12.6,0,0,0-12.14,12.33l-.91,42.9A12.6,12.6,0,0,0,2179.16,414.55Z" transform="translate(-6.71 -5.67)"/><path class="cls-11" d="M2146.81,585.52l1-48.33a13.76,13.76,0,0,0-13.3-14l-44.93-1.47a13.75,13.75,0,0,0-14.19,13.45l-1.06,49.8a13.75,13.75,0,0,0,13.74,14h45A13.75,13.75,0,0,0,2146.81,585.52Z" transform="translate(-6.71 -5.67)"/><path class="cls-11" d="M2227.65,438.59l-51.61.09a10.44,10.44,0,0,0-10.41,10.21l-1,46.48A10.42,10.42,0,0,0,2174.73,506l51.57,1.68a10.42,10.42,0,0,0,10.77-10.19l1-48.26A10.43,10.43,0,0,0,2227.65,438.59Z" transform="translate(-6.71 -5.67)"/><path class="cls-11" d="M2254,451.35l-.94,44.26A13.1,13.1,0,0,0,2265.7,509l46.22,1.52a13.11,13.11,0,0,0,13.53-12.82l1-45.86a13.09,13.09,0,0,0-13.12-13.38l-46.25.08A13.11,13.11,0,0,0,2254,451.35Z" transform="translate(-6.71 -5.67)"/><path class="cls-11" d="M2086.41,503.12,2138,504.8a10.42,10.42,0,0,0,10.77-10.2l1-45.2a10.43,10.43,0,0,0-10.44-10.65l-51.61.09a10.43,10.43,0,0,0-10.41,10.21l-.92,43.42A10.44,10.44,0,0,0,2086.41,503.12Z" transform="translate(-6.71 -5.67)"/><path class="cls-11" d="M2222.87,526.05l-44.93-1.48a13.76,13.76,0,0,0-14.2,13.45l-1,46.92a13.75,13.75,0,0,0,13.74,14h45a13.75,13.75,0,0,0,13.75-13.46l1-45.45A13.74,13.74,0,0,0,2222.87,526.05Z" transform="translate(-6.71 -5.67)"/><path class="cls-11" d="M2312.75,529l-48.08-1.58a12.19,12.19,0,0,0-12.57,11.91l-1,47.24A12.18,12.18,0,0,0,2263.27,599h48.11a12.18,12.18,0,0,0,12.17-11.92l1-45.67A12.17,12.17,0,0,0,2312.75,529Z" transform="translate(-6.71 -5.67)"/><path class="cls-11" d="M2009,413l35.87.2a17.47,17.47,0,0,0,17.56-17.1l.63-29.59A15.56,15.56,0,0,0,2047,350.61L2007,352a17.1,17.1,0,0,0-16.48,16.73l-.53,24.71A19.1,19.1,0,0,0,2009,413Z" transform="translate(-6.71 -5.67)"/><path class="cls-11" d="M1969,632.4a14.54,14.54,0,0,0-14.4-14.85L1939,617.4c-11.88-.12-21.58,7.73-21.79,17.61l-.61,28.61c-.21,9.8,9,18,20.78,18.52l16.77.71a13.51,13.51,0,0,0,14.08-13.22Z" transform="translate(-6.71 -5.67)"/><path class="cls-11" d="M2471.45,622.56l-30.73-.3a13.76,13.76,0,0,0-13.88,13.47l-1.14,53.6a13.76,13.76,0,0,0,13.17,14l30.59,1.29c12.2.52,22.43-7.43,22.64-17.6l1-46C2493.29,631,2483.56,622.68,2471.45,622.56Z" transform="translate(-6.71 -5.67)"/><path class="cls-11" d="M1940.26,599h15.25a14.55,14.55,0,0,0,14.54-14.24l1.12-52.53a14.54,14.54,0,0,0-14.07-14.84l-15.35-.51c-12.1-.39-22.18,7.53-22.39,17.61l-1,46C1918.17,590.57,1928.05,599,1940.26,599Z" transform="translate(-6.71 -5.67)"/><path class="cls-11" d="M1941.54,498.38l19.2.62a11,11,0,0,0,11.36-10.75l.8-37.95a11,11,0,0,0-11-11.23l-19.39,0c-11.76,0-21.28,7.83-21.49,17.61l-.49,23.13C1920.31,489.73,1929.68,498,1941.54,498.38Z" transform="translate(-6.71 -5.67)"/><path class="cls-11" d="M2476.36,335.19l-30.81,1.11a13.08,13.08,0,0,0-12.63,12.81l-1.13,52.95a13.11,13.11,0,0,0,13,13.38l31.73.18c11.83.06,21.48-7.77,21.69-17.62l.93-44.29C2499.4,343.24,2488.92,334.74,2476.36,335.19Z" transform="translate(-6.71 -5.67)"/><path class="cls-11" d="M2220.56,620.13l-45-.44a13.75,13.75,0,0,0-13.87,13.46l-1,45a13.75,13.75,0,0,0,13.16,14l44.93,1.9a13.74,13.74,0,0,0,14.32-13.44l1-46.44A13.74,13.74,0,0,0,2220.56,620.13Z" transform="translate(-6.71 -5.67)"/><path class="cls-11" d="M2475.06,438.14l-31.23.06A13.11,13.11,0,0,0,2430.75,451l-1.06,50.36a13.1,13.1,0,0,0,12.67,13.38l31.36,1c12.1.4,22.18-7.52,22.39-17.6l.88-41.51C2497.21,446.51,2487.29,438.12,2475.06,438.14Z" transform="translate(-6.71 -5.67)"/><path class="cls-11" d="M2473.93,534.26l-32.6-1.07a12.17,12.17,0,0,0-12.57,11.91l-.88,41.48A12.17,12.17,0,0,0,2440.05,599h32.75c11.78,0,21.34-7.81,21.55-17.62l.6-28.6C2495.16,542.9,2485.79,534.65,2473.93,534.26Z" transform="translate(-6.71 -5.67)"/><path class="cls-11" d="M2340.43,542.21l-.94,44.36A12.18,12.18,0,0,0,2351.66,599h48.11a12.18,12.18,0,0,0,12.17-11.92l.91-42.79a12.18,12.18,0,0,0-11.77-12.42L2353,530.3A12.18,12.18,0,0,0,2340.43,542.21Z" transform="translate(-6.71 -5.67)"/><path class="cls-11" d="M2397.28,621.84l-44.93-.43a13.75,13.75,0,0,0-13.88,13.46l-1.08,50.72a13.76,13.76,0,0,0,13.17,14l44.9,1.9a13.76,13.76,0,0,0,14.34-13.46l1.11-52.18A13.77,13.77,0,0,0,2397.28,621.84Z" transform="translate(-6.71 -5.67)"/><path class="cls-11" d="M1944.07,412.61l18.8.1A11,11,0,0,0,1973.93,402l.79-37.11a11,11,0,0,0-11.39-11.23l-19.92.72c-11.4.41-20.4,8.1-20.6,17.6l-.47,22.14C1922.12,404.18,1931.92,412.54,1944.07,412.61Z" transform="translate(-6.71 -5.67)"/><path class="cls-11" d="M2308.91,621l-44.17-.42a14.52,14.52,0,0,0-14.66,14.21l-1,47.08a13.77,13.77,0,0,0,13.17,14l44.9,1.9a13.75,13.75,0,0,0,14.34-13.46l1.05-49.3A13.78,13.78,0,0,0,2308.91,621Z" transform="translate(-6.71 -5.67)"/><path class="cls-11" d="M2344.46,352.29l-1.05,49.27a13.11,13.11,0,0,0,13,13.38l46.24.26a13.11,13.11,0,0,0,13.18-12.83l1.09-51.19a13.11,13.11,0,0,0-13.58-13.37l-46.28,1.66A13.11,13.11,0,0,0,2344.46,352.29Z" transform="translate(-6.71 -5.67)"/><path class="cls-11" d="M2342.36,451.19l-1,47.31A13.11,13.11,0,0,0,2354,511.88l46.22,1.51a13.11,13.11,0,0,0,13.53-12.82l1-48.91a13.09,13.09,0,0,0-13.12-13.38l-46.25.08A13.11,13.11,0,0,0,2342.36,451.19Z" transform="translate(-6.71 -5.67)"/><path class="cls-17" d="M1938.94,314.42l2.13,15.6a10.25,10.25,0,0,0,9.94,8.86l.73,0a10.25,10.25,0,0,0,10.47-10l.34-16a10.26,10.26,0,0,0-11.37-10.41l-3.21.36A10.24,10.24,0,0,0,1938.94,314.42Z" transform="translate(-6.71 -5.67)"/><path class="cls-17" d="M2011.36,310.4l2.12,15.6a10.25,10.25,0,0,0,9.94,8.86l.74,0a10.24,10.24,0,0,0,10.46-10l.34-16a10.24,10.24,0,0,0-11.37-10.4l-3.2.35A10.24,10.24,0,0,0,2011.36,310.4Z" transform="translate(-6.71 -5.67)"/><path class="cls-17" d="M2100.45,311.63l2.13,15.6a10.25,10.25,0,0,0,9.94,8.86l.74,0a10.25,10.25,0,0,0,10.46-10l.34-16a10.26,10.26,0,0,0-11.37-10.41l-3.2.36A10.25,10.25,0,0,0,2100.45,311.63Z" transform="translate(-6.71 -5.67)"/><path class="cls-17" d="M2187.26,307.74l2.13,15.6a10.23,10.23,0,0,0,9.94,8.86l.73,0a10.25,10.25,0,0,0,10.47-10l.33-16a10.24,10.24,0,0,0-11.36-10.4l-3.21.35A10.24,10.24,0,0,0,2187.26,307.74Z" transform="translate(-6.71 -5.67)"/><path class="cls-17" d="M2276.42,296.4l2.13,15.61a10.25,10.25,0,0,0,9.93,8.86h.74a10.24,10.24,0,0,0,10.46-10l.34-16a10.24,10.24,0,0,0-11.36-10.4l-3.21.35A10.24,10.24,0,0,0,2276.42,296.4Z" transform="translate(-6.71 -5.67)"/><path class="cls-17" d="M2370.87,298.41,2373,314a10.25,10.25,0,0,0,9.93,8.86h.74a10.24,10.24,0,0,0,10.47-10l.33-16a10.25,10.25,0,0,0-11.36-10.41l-3.21.36A10.24,10.24,0,0,0,2370.87,298.41Z" transform="translate(-6.71 -5.67)"/><path class="cls-17" d="M2450.59,296.74l2.13,15.6a10.25,10.25,0,0,0,9.94,8.86l.73,0a10.25,10.25,0,0,0,10.47-10l.34-16a10.26,10.26,0,0,0-11.37-10.41l-3.21.36A10.24,10.24,0,0,0,2450.59,296.74Z" transform="translate(-6.71 -5.67)"/><path class="cls-18" d="M2420.32,292.44a3.79,3.79,0,0,0-6.31-2.77c-7.33,5.77-10.31,14.73-13.92,23.1-4.21,9.74-8.24,19.56-11.82,29.55a271.83,271.83,0,0,0-9.45,32.14,232.53,232.53,0,0,0-17.68-37.69c-1.91-3.19-7.28-1.32-6.22,2.47,6.2,22,13.83,43.61,19.67,65.76,2.06,7.81,12.74,6,13.54-1.54a250.72,250.72,0,0,1,14.16-59.5c3.34-9.21,7.07-18.27,10.94-27.27C2416.65,308.72,2420.83,301.29,2420.32,292.44Z" transform="translate(-6.71 -5.67)"/><path class="cls-19" d="M2430.39,308.78c-6.38-1.19-8.7,7-2.85,9.54,38.67,17,43.73,65,15.79,94-12.92,13.43-30.07,23.86-46.31,32.82-16.46,9.08-34.85,16-54,14.11-44.3-4.45-50.32-49.54-37.07-84.33,12.73-33.46,40-59.29,73.42-71.67,4.31-1.6,2.64-8.63-1.78-7a140.53,140.53,0,0,0-74.54,62.41c-15.2,26.69-24.31,64.33-4.42,91.11,20.59,27.72,59.67,28.22,89.11,16.66,32.39-12.71,72.71-36.29,85.6-70.51C2486.89,360,2470.22,316.24,2430.39,308.78Z" transform="translate(-6.71 -5.67)"/><path class="cls-5" d="M2589.35,737.4a1.67,1.67,0,0,1-1.68-1.66l-2-294.38a1.68,1.68,0,0,1,1.67-1.69h0a1.67,1.67,0,0,1,1.67,1.67l2,294.37a1.67,1.67,0,0,1-1.66,1.69Z" transform="translate(-6.71 -5.67)"/><path class="cls-5" d="M2586.84,375.44a1.69,1.69,0,0,1-1.68-1.67L2584.45,271a1.68,1.68,0,0,1,1.67-1.69h0a1.67,1.67,0,0,1,1.67,1.67l.72,102.81a1.69,1.69,0,0,1-1.67,1.69Z" transform="translate(-6.71 -5.67)"/><circle class="cls-5" cx="1950.07" cy="265.51" r="17.94"/><circle class="cls-5" cx="2097.03" cy="264.13" r="17.94"/><circle class="cls-5" cx="2245.37" cy="259.3" r="17.94"/><circle class="cls-5" cx="2392.33" cy="252.41" r="17.94"/><path class="cls-20" d="M2412.68,133.79c-30.18,6.58-27.33,86-24.91,118.23a14.53,14.53,0,0,0,14.5,13.44,7.46,7.46,0,0,0,7.4-8.26c-2.61-24.36-8.16-94.54,14.06-98.29,0,0,15.94-2.82,18.62,28.06h17.25S2450.63,125.51,2412.68,133.79Z" transform="translate(-6.71 -5.67)"/><path class="cls-20" d="M2265.72,137.87c-30.18,6.59-27.33,86-24.9,118.26a14.53,14.53,0,0,0,14.49,13.45,7.44,7.44,0,0,0,7.4-8.24c-2.61-24.37-8.16-94.59,14.06-98.35,0,0,15.94-2.2,18.62,28h17.25S2303.67,129.59,2265.72,137.87Z" transform="translate(-6.71 -5.67)"/><path class="cls-20" d="M2118.76,142c-30.18,6.59-27.33,86-24.9,118.28a14.54,14.54,0,0,0,14.49,13.46,7.44,7.44,0,0,0,7.4-8.23c-2.61-24.37-8.16-94.63,14.06-98.38,0,0,15.94-1.8,18.62,28.56l17.25-.6S2156.71,133.69,2118.76,142Z" transform="translate(-6.71 -5.67)"/><path class="cls-20" d="M1971.8,146.72c-30.18,6.58-27.33,86.08-24.9,118.32a14.56,14.56,0,0,0,14.49,13.48,7.42,7.42,0,0,0,7.4-8.22c-2.61-24.37-8.16-94.71,14.07-98.46,0,0,15.93-2.32,18.62,27.88h17.24S2009.75,138.44,1971.8,146.72Z" transform="translate(-6.71 -5.67)"/><path class="cls-5" d="M1039.12,1129.55H548.4c-19.81,0-35.87-14.69-35.87-32.82V804.41c0-17.42,14.87-31.8,33.87-32.77l509.66-26c21.34-1.09,39,15,37.81,34.55l-18.93,318.3C1073.9,1115.92,1058.17,1129.55,1039.12,1129.55Z" transform="translate(-6.71 -5.67)"/><path class="cls-3" d="M805.22,953.16l268.24-204.38a38.55,38.55,0,0,0-17.4-3.12l-509.66,26a37.41,37.41,0,0,0-22.59,8.89l200.75,170.8C746.36,969.87,782.21,970.69,805.22,953.16Z" transform="translate(-6.71 -5.67)"/><path class="cls-11" d="M767.93,943a59.26,59.26,0,0,1-37.28-13L655,869a4.62,4.62,0,0,1-.48-6.92,5.7,5.7,0,0,1,7.57-.43l75.64,61.09a48.76,48.76,0,0,0,56.86,2.6l39.19-25.77a5.69,5.69,0,0,1,7.49,1.12,4.64,4.64,0,0,1-1.23,6.84l-39.19,25.77A59.91,59.91,0,0,1,767.93,943Z" transform="translate(-6.71 -5.67)"/><path class="cls-11" d="M630.41,847.46a5.63,5.63,0,0,1-3.54-1.23L616.68,838a4.63,4.63,0,0,1-.47-6.93,5.72,5.72,0,0,1,7.57-.43L634,838.88a4.62,4.62,0,0,1,.47,6.92A5.58,5.58,0,0,1,630.41,847.46Z" transform="translate(-6.71 -5.67)"/><path class="cls-5" d="M2325.25,1176.66v224.76a50,50,0,0,0,47.66,49.95l281.06,13.2a50,50,0,0,0,52.36-50v-238a50,50,0,0,0-50-50H2375.26A50,50,0,0,0,2325.25,1176.66Z" transform="translate(-6.71 -5.67)"/><path class="cls-11" d="M2427.07,1409.44c-3.63,0-6.7,0-9.13-.09a8.35,8.35,0,0,1-2-16.4c21.58-6,45.12-16.33,62.45-24.65-82.65-6.74-99.15-49.19-102.34-68.6-8.05-49,34.45-104.38,94.73-123.51,61.52-19.52,123.83-12.49,158.77,17.92,18.57,16.16,38.71,47.1,29.21,102.79C2641,1401.09,2478.48,1409.44,2427.07,1409.44Zm-7.1-2Zm-1.72-13h0Zm119.41-40.74-26.18,14.59a575.51,575.51,0,0,1-52.46,25.28c63.81-3.85,171.76-21.88,184.92-99.1,6.68-39.19-1.48-69.13-24.27-89-35.35-30.77-98-29.67-144.39-15-52.56,16.69-91.24,65.59-84.47,106.78,6.14,37.4,48.73,58.32,116.88,56.89Z" transform="translate(-6.71 -5.67)"/><path class="cls-5" d="M1312.35,2508.13h-291.2c-22.28,0-40.33-13.94-40.33-31.13V2251.58c0-16.22,16.13-29.72,37.07-31l310.26-19.38c24.44-1.53,45,14,43.51,32.89l-19.06,244.81C1351.32,2495.3,1333.68,2508.13,1312.35,2508.13Z" transform="translate(-6.71 -5.67)"/><path class="cls-11" d="M1062.61,2463.28a30.23,30.23,0,0,1-20.95-7.89,20.65,20.65,0,0,1-6.7-14.94V2295.93a6.41,6.41,0,1,1,12.81,0v144.52a8,8,0,0,0,2.73,5.68c3.08,2.94,8,4.55,13.12,4.32l221.83-10.2c7.67-.35,13.91-4.84,13.91-10V2288.36a8.12,8.12,0,0,0-2.86-5.81c-3.25-3-8.33-4.56-13.63-4.16l-184.54,14.11c-7.5.58-11.6,4.46-12.82,7.61-1,2.6-.36,5.23,1.87,7.62l70.39,75c2.76,2.94,7.38,4.73,12.37,4.77s9.76-1.68,12.62-4.63l77.53-79.74a6.4,6.4,0,1,1,9.18,8.93l-77.53,79.74c-5.33,5.48-13.28,8.49-21.91,8.51s-16.42-3.29-21.6-8.81l-70.39-75c-5.59-6-7.26-13.82-4.47-21,3.44-8.85,12.55-14.88,23.79-15.74l184.54-14.11c8.76-.67,17.48,2.15,23.3,7.53a20.75,20.75,0,0,1,7,15.21v141.89c0,12.11-11.48,22.12-26.13,22.8l-221.84,10.2Q1063.41,2463.28,1062.61,2463.28Z" transform="translate(-6.71 -5.67)"/><path class="cls-21" d="M402.39,1317.38s-33,16.06-39.1,34.51c-4.87,14.81-41.39,16.72-45,45.84-1.86,15-13,27.08-28,29.37-37.3,5.72-94.77,25.09-104,89.84-7,49.43,18.18,68.17,44.62,74.66,19.42,4.76,32.33,23.65,28.4,43.26-3.77,18.81,1.85,40.55,34.44,57.75,73,38.52,145.93-91.28,145.93-91.28l14.94-226.65Z" transform="translate(-6.71 -5.67)"/><path class="cls-22" d="M799.69,1263.65s-145.78,230.59-319.14,275.13c0,0,33.78,96.21,59.85,107.22,0,0,213.28-178,268.09-349.59Z" transform="translate(-6.71 -5.67)"/><path class="cls-23" d="M102.26,2738.52l-4.72,38.84a16.05,16.05,0,0,1-14.07,14c-12.46,1.42-32.44,2.88-52,.81a13.74,13.74,0,0,1-11.54-17.82c4.77-15,13.49-37.5,26.06-50.75H89.09A13.27,13.27,0,0,1,102.26,2738.52Z" transform="translate(-6.71 -5.67)"/><path class="cls-24" d="M439.75,2283.5l7.27,42.78s-24.35,246.7-28.68,345.37a77.33,77.33,0,0,0,11.44,43.95l42.35,68.77L364.5,2720.86l-2.14-13.13L380,2683.5,356.9,2407.14a84.74,84.74,0,0,1,9.65-46.9l22.26-41.82Z" transform="translate(-6.71 -5.67)"/><path class="cls-25" d="M479.22,2794.33H444.87a20.68,20.68,0,0,1-16.41-8c-10.71-13.92-32.9-41.06-43.5-41.77-14.28-.95-12.46,49.81-12.46,49.81h-8l-10.14-63.08a37.34,37.34,0,0,1,19.59-39s3.27,24.14,21,34.82S467,2776,467,2776a49.21,49.21,0,0,1,13.95.38C491.74,2778.28,490.23,2794.33,479.22,2794.33Z" transform="translate(-6.71 -5.67)"/><path class="cls-26" d="M292.33,2303.82S149.66,2574.47,127,2636.26,96.35,2749.6,96.05,2754.48c-.48,7.63-10,14.95-36.12,14.95-13.49,0-20.1-5.41-23.34-10.65A15.27,15.27,0,0,1,36,2744c8.26-16.7,34.45-70.08,44.15-94.29,11.58-28.9,36.49-159.9,50.15-205.44s29.11-95,88.61-140.46C218.92,2303.82,259.76,2263.82,292.33,2303.82Z" transform="translate(-6.71 -5.67)"/><path class="cls-27" d="M382.47,1860.35C419.27,1704.4,326,1616.19,326,1616.19c58.83-56.47,166-82.16,166-82.16s102.28,74.77,90.15,133.3c-7.11,34.31-71.89,205.48-71.89,205.48S450.4,1901.16,382.47,1860.35Z" transform="translate(-6.71 -5.67)"/><path class="cls-28" d="M300.86,1937.56c15-45.12,81.61-77.21,81.61-77.21,67.93,40.81,127.84,12.46,127.84,12.46s13.43,51.35,4.16,99.07S447,2326.28,447,2326.28c-91.66,18.58-232.63-18.68-232.63-18.68C272.77,2203.94,285.89,1982.69,300.86,1937.56Z" transform="translate(-6.71 -5.67)"/><path class="cls-29" d="M425.19,1431l-29.93,134.4c-2.86,11.84,7.93,9.9,19.9,7.65,19.6-3.7,44.87-11.31,53.31-26.56a14.41,14.41,0,0,0,1.53-5.07l12.86-93.2a16.74,16.74,0,0,0-9.8-17.59l-24.81-11A16.73,16.73,0,0,0,425.19,1431Z" transform="translate(-6.71 -5.67)"/><path class="cls-30" d="M482.5,1308.44S514.36,1330,528,1384.92s-8.55,74.61-31.35,73.41-55.87-8.26-84.52-47.66S440.76,1282.09,482.5,1308.44Z" transform="translate(-6.71 -5.67)"/><path class="cls-31" d="M441.06,1388.52s-11.67-78.69,53.66-66.65l13.21,13.75s32-36-3.41-63.24-84.49-20.25-111.66,29.31-37,84.39-14.26,115.18,39.9,4.39,39.9,4.39-10.44-26.66-1.78-38.09,19.85,6.65,19.85,6.65Z" transform="translate(-6.71 -5.67)"/><path class="cls-32" d="M432.13,1395.26s-5.76-40.49-26.44-28.91,7.46,37.82,18.73,46.75Z" transform="translate(-6.71 -5.67)"/><path class="cls-33" d="M798.69,1311.12c.44,4.75-17.25,8-22.88-12.24,1.55-8.8,4.3-47.35,11.05-53.34,35.95-31.9,100.06-67.79,100.06-67.79,7.17,11-2.23,18.16-2.23,18.16l-32,21.59c3.33,11.06,8.21,20.84,8.76,33.46a37.52,37.52,0,0,1-9.46,26.17c-6.37,7.28-14.94,16.67-22.67,23.81C814.69,1314.44,798.69,1311.12,798.69,1311.12Z" transform="translate(-6.71 -5.67)"/><path class="cls-34" d="M816.07,1295.4l-4.89-2c.65-1.58,16-38.9,23.44-46.67,2.82-2.94,4.18-5.46,4.06-7.5a5.36,5.36,0,0,0-1.65-3.29l-25.89,13.85-11.44,17.91-4.46-2.85,12.18-19.08,30.33-16.22,1.37,1.12c3.07,2.51,4.66,5.2,4.84,8.24.22,3.62-1.58,7.37-5.51,11.49C832.85,1256.23,820.4,1284.86,816.07,1295.4Z" transform="translate(-6.71 -5.67)"/><path class="cls-35" d="M415.81,1942.63c.21,0,.41,0,.62,0l267.32-.29a11.84,11.84,0,1,0,0-23.67L416.4,1919a11.84,11.84,0,0,0-.59,23.66Z" transform="translate(-6.71 -5.67)"/><path class="cls-36" d="M924.06,1702.48H701.43a42.45,42.45,0,0,0-38.37,24.08L560.14,1942.49H836.8a25.79,25.79,0,0,0,24-16.14l79.81-199.81A17.62,17.62,0,0,0,924.06,1702.48Z" transform="translate(-6.71 -5.67)"/><ellipse class="cls-5" cx="783.91" cy="1818.51" rx="28.24" ry="17.52" transform="matrix(0.31, -0.95, 0.95, 0.31, -1195.31, 1988.1)"/><path class="cls-37" d="M325.65,1616.51c-36.48,36.81-82.75,200-59.79,227.2,20.21,31.73,89.05,74.91,154.6,75h96.7c-40.63-43.18-68.61-54.13-101.94-23.94-26.44-11.3-60.73-55.07-83.61-74.61a24.39,24.39,0,0,1-5.1-30.93c18.18-30.78,41-62.42,48.23-93.07C376.3,1660.21,349.72,1619.11,325.65,1616.51Z" transform="translate(-6.71 -5.67)"/><path class="cls-38" d="M2409,2478.18c15.25,3,102.15,54.74,102.15-4.38v-66S2404.58,2477.31,2409,2478.18Z" transform="translate(-6.71 -5.67)"/><path class="cls-39" d="M2104,2761.93s-20.19-16.76-47-14.31c-18.72,3.28-40.68,19.83-54.84,32.11a7.53,7.53,0,0,0-2.08,8.55,7.91,7.91,0,0,0,7.52,4.86c35.11-.73,103.79-2.82,103.79-8C2111.37,2778.2,2104,2761.93,2104,2761.93Z" transform="translate(-6.71 -5.67)"/><path class="cls-40" d="M2117.93,2732.39l-16.11,30.44s-36.4,3-35.21-11.34,10.14-31.63,10.14-31.63Z" transform="translate(-6.71 -5.67)"/><path class="cls-41" d="M2529.35,2753.12c-25.24-137.83-21.17-221.84-21.17-221.84s-302.23-185-330.87-140.82S2066.58,2736,2066.58,2736l54.73,14.91s104.63-141.72,114.18-262.71c26.94,88.24,52,299.12,259.29,305.17a34.14,34.14,0,0,0,34.57-40.23Z" transform="translate(-6.71 -5.67)"/><polygon class="cls-42" points="1917.87 2744.03 1884.45 2775.66 1858.2 2749.4 1892.81 2709.42 1917.87 2744.03"/><path class="cls-43" d="M2660,2063.26l27.9,102.83a12,12,0,0,1-4,12.59c-13.44,10.17-48.55,30.39-96.71,10.74-5.51-2.25-9.29-7.93-9.77-14.4l-6.61-89.58Z" transform="translate(-6.71 -5.67)"/><path class="cls-44" d="M2496.66,1980.32s5.47,97.29,39.87,130,108.24,16.59,138.72-53.81l-37.84-128Z" transform="translate(-6.71 -5.67)"/><path class="cls-45" d="M2626.47,2015.69a4.78,4.78,0,0,1-5.86-4.34c-.57-9-2.4-26.83-8.12-39.37,0,0,4.6-12.31-32.42,3.72s-92.57,39.48-122.45,20.15c-29.13-18.85-53.07-103.26,26.29-81.23a4.78,4.78,0,0,0,6.09-4.5c.15-13.52,4.12-44.33,36.28-51.58,30.09-6.79,45,7.81,50.93,16.36a4.75,4.75,0,0,0,7.42.51c9.75-10.71,35.67-33.07,69.44-14.61,27.82,15.2,30.79,33.39,29.37,44.44a4.76,4.76,0,0,0,6.37,5.1c9.2-3.32,23.62-4.22,35.8,14,16.84,25.23-11.85,43.42-20.39,48.1a4.77,4.77,0,0,0-2.49,3.75c-1.13,12.28-5.43,67-34.87,94.94-2.55,2.42-9,0-10-3.36l-16.48-51a4.8,4.8,0,0,0-5.65-3.2Z" transform="translate(-6.71 -5.67)"/><path class="cls-46" d="M2622.4,2022.67s17-50.36,34.77-32-9.56,53-32.13,58.16Z" transform="translate(-6.71 -5.67)"/><path class="cls-47" d="M1907.46,2765.91c-8.17.09-42.55-15-42.55-15l-32,8.56c-27.91-4.3-51.89,5.21-68,14.87a9.21,9.21,0,0,0,4.58,17.11c31.61.52,83.52,1.05,109.81-.52C1918.61,2788.55,1924.58,2789.68,1907.46,2765.91Z" transform="translate(-6.71 -5.67)"/><path class="cls-48" d="M2183.9,2426l-69.23-230.87a23.6,23.6,0,0,0-21-16.77l-93.46-6.39a13.26,13.26,0,0,0-13.42,17.61l77.39,220.48a19.42,19.42,0,0,0,16.36,12.88l92,10.22Z" transform="translate(-6.71 -5.67)"/><path class="cls-49" d="M2172.58,2433.18h.45l196.12-9.92a8.79,8.79,0,1,0-.89-17.55l-196.11,9.91a8.79,8.79,0,0,0,.43,17.57Z" transform="translate(-6.71 -5.67)"/><path class="cls-50" d="M2464.24,2405.35s-38.46,49.53-148.51-14.47c0,0-31.09-28.61-63.11-25.4s-55.25,46.77-55.25,46.77l61.79-1.27s85.78,104.09,265.12,104.09C2529.3,2475.17,2488.28,2441.32,2464.24,2405.35Z" transform="translate(-6.71 -5.67)"/><path class="cls-51" d="M2616.54,2153.94c-23.41,5.15-49.39,29.91-67.76,50.76a150.42,150.42,0,0,0-31.65,57.62c-14.07,48.22-44.87,142.58-65.25,151.61,46.15,65.54,53.93,87,53.93,87-8.68,78.21-26.85,93.86-26.85,93.86s90.15,89.48,199.32,114.94c99.43-73.2,114.63-282.61,114.63-282.61C2800.7,2178.73,2686,2138.67,2616.54,2153.94Z" transform="translate(-6.71 -5.67)"/><path class="cls-52" d="M2505,2503.54a2.24,2.24,0,0,1-1.46-3.94c.9-.78,90.52-79,114.63-179.45a2.25,2.25,0,1,1,4.37,1c-24.46,101.86-115.16,181-116.07,181.8A2.23,2.23,0,0,1,2505,2503.54Z" transform="translate(-6.71 -5.67)"/><path class="cls-53" d="M2678.28,2709.72s-44.76,133.07-265.66,58.48c-107.11-36.17-257.1-245.86-257.1-245.86s-37,101.45-230.34,237.51l-43-38.59s195.74-337.37,296-302.36S2708.91,2623.39,2678.28,2709.72Z" transform="translate(-6.71 -5.67)"/><polygon class="cls-3" points="2002.9 2183.04 2078.26 2393.11 2158.29 2391.03 2094.49 2189.49 2002.9 2183.04"/></g></g></svg>